<?xml version="1.0" encoding="utf-8"?>
<!-- Generator: Adobe Illustrator 22.1.0, SVG Export Plug-In . SVG Version: 6.00 Build 0)  -->
<svg version="1.1" id="Слой_1" xmlns="http://www.w3.org/2000/svg" xmlns:xlink="http://www.w3.org/1999/xlink" x="0px" y="0px"
	 viewBox="0 0 1491 403" style="enable-background:new 0 0 1491 403;" xml:space="preserve">
<style type="text/css">
	.st0{fill:none;stroke:#000000;stroke-width:2;stroke-linejoin:round;stroke-miterlimit:10;}
	.st1{fill:none;stroke:#000000;stroke-width:2;stroke-miterlimit:10;}
	.st2{fill:#FFFFFF;stroke:#000000;stroke-width:2;stroke-miterlimit:10;}
	.st3{fill:none;stroke:#201600;stroke-width:2;stroke-miterlimit:10;}
	.st4{fill:#FFFFFF;stroke:#201600;stroke-width:2;stroke-miterlimit:10;}
	.st5{fill:none;stroke:#1E0E00;stroke-width:2;stroke-miterlimit:10;}
	.st6{fill:none;stroke:#1E0E00;stroke-width:2;stroke-linejoin:round;stroke-miterlimit:10;}
</style>
<g>
	<rect x="5.1" y="75.5" class="st3" width="62.8" height="275.7"/>
	<rect x="14.3" y="89.8" class="st3" width="44.4" height="156.9"/>
	<circle class="st3" cx="36.5" cy="307.1" r="15.1"/>
</g>
<g>
	<rect x="74.6" y="75.5" class="st3" width="62.8" height="275.7"/>
	<rect x="83.9" y="89.8" class="st3" width="44.4" height="156.9"/>
	<circle class="st3" cx="106.1" cy="307.1" r="15.1"/>
</g>
<g>
	<rect x="144.2" y="75.5" class="st3" width="62.8" height="275.7"/>
	<rect x="153.4" y="89.8" class="st3" width="44.4" height="156.9"/>
	<circle class="st3" cx="175.6" cy="307.1" r="15.1"/>
</g>
<g>
	<rect x="213.8" y="75.5" class="st3" width="62.8" height="275.7"/>
	<rect x="223" y="89.8" class="st3" width="44.4" height="156.9"/>
	<circle class="st3" cx="245.2" cy="307.1" r="15.1"/>
</g>
<g>
	<rect x="283.3" y="75.5" class="st3" width="62.8" height="275.7"/>
	<rect x="292.5" y="89.8" class="st3" width="44.4" height="156.9"/>
	<circle class="st3" cx="314.7" cy="307.1" r="15.1"/>
</g>
<g>
	<rect x="352.9" y="75.5" class="st3" width="62.8" height="275.7"/>
	<rect x="362.1" y="89.8" class="st3" width="44.4" height="156.9"/>
	<circle class="st3" cx="384.3" cy="307.1" r="15.1"/>
</g>
<g>
	<rect x="422.4" y="75.5" class="st3" width="62.8" height="275.7"/>
	<rect x="431.7" y="89.8" class="st3" width="44.4" height="156.9"/>
	<circle class="st3" cx="453.9" cy="307.1" r="15.1"/>
</g>
<g>
	<rect x="492" y="75.5" class="st3" width="62.8" height="275.7"/>
	<rect x="501.2" y="89.8" class="st3" width="44.4" height="156.9"/>
	<circle class="st3" cx="523.4" cy="307.1" r="15.1"/>
</g>
<g>
	<rect x="561.6" y="75.5" class="st3" width="62.8" height="275.7"/>
	<rect x="570.8" y="89.8" class="st3" width="44.4" height="156.9"/>
	<circle class="st3" cx="593" cy="307.1" r="15.1"/>
</g>
<g>
	<rect x="631.1" y="75.5" class="st3" width="62.8" height="275.7"/>
	<rect x="640.3" y="89.8" class="st3" width="44.4" height="156.9"/>
	<circle class="st3" cx="662.5" cy="307.1" r="15.1"/>
</g>
<g>
	<rect x="700.7" y="75.5" class="st3" width="62.8" height="275.7"/>
	<rect x="709.9" y="89.8" class="st3" width="44.4" height="156.9"/>
	<circle class="st3" cx="732.1" cy="307.1" r="15.1"/>
</g>
<g>
	<rect x="770.2" y="75.5" class="st3" width="62.8" height="275.7"/>
	<rect x="779.5" y="89.8" class="st3" width="44.4" height="156.9"/>
	<circle class="st3" cx="801.7" cy="307.1" r="15.1"/>
</g>
<g>
	<rect x="839.8" y="75.5" class="st3" width="62.8" height="275.7"/>
	<rect x="849" y="89.8" class="st3" width="44.4" height="156.9"/>
	<circle class="st3" cx="871.2" cy="307.1" r="15.1"/>
</g>
<g>
	<rect x="909.4" y="75.5" class="st3" width="62.8" height="275.7"/>
	<rect x="918.6" y="89.8" class="st3" width="44.4" height="156.9"/>
	<circle class="st3" cx="940.8" cy="307.1" r="15.1"/>
</g>
<g>
	<rect x="978.9" y="75.5" class="st3" width="62.8" height="275.7"/>
	<rect x="988.1" y="89.8" class="st3" width="44.4" height="156.9"/>
	<circle class="st3" cx="1010.3" cy="307.1" r="15.1"/>
</g>
<g>
	<rect x="1048.5" y="75.5" class="st3" width="62.8" height="275.7"/>
	<rect x="1057.7" y="89.8" class="st3" width="44.4" height="156.9"/>
	<circle class="st3" cx="1079.9" cy="307.1" r="15.1"/>
</g>
<g>
	
		<rect x="1147.8" y="71.5" transform="matrix(0.9656 -0.26 0.26 0.9656 -13.8847 313.7484)" class="st3" width="62.8" height="275.7"/>
	
		<rect x="1145.3" y="87.4" transform="matrix(0.9656 -0.26 0.26 0.9656 -2.9569 309.2023)" class="st3" width="44.4" height="156.9"/>
	<circle class="st3" cx="1203.6" cy="299.9" r="15.1"/>
</g>
<g>
	
		<rect x="1213" y="71.5" transform="matrix(0.9656 -0.26 0.26 0.9656 -11.6438 330.6921)" class="st3" width="62.8" height="275.7"/>
	<rect x="1210.5" y="87.4" transform="matrix(0.9656 -0.26 0.26 0.9656 -0.716 326.146)" class="st3" width="44.4" height="156.9"/>
	<circle class="st3" cx="1268.8" cy="299.9" r="15.1"/>
</g>
<g>
	
		<rect x="1332.9" y="83.5" transform="matrix(0.8077 -0.5897 0.5897 0.8077 131.9076 847.0842)" class="st3" width="62.8" height="275.7"/>
	
		<rect x="1315.6" y="106.5" transform="matrix(0.8077 -0.5897 0.5897 0.8077 148.2893 824.3833)" class="st3" width="44.4" height="156.9"/>
	<circle class="st3" cx="1419.7" cy="297.1" r="15.1"/>
</g>
</svg>
