<?xml version="1.0" encoding="utf-8"?>
<!-- Generator: Adobe Illustrator 22.1.0, SVG Export Plug-In . SVG Version: 6.00 Build 0)  -->
<svg version="1.1" id="Слой_1" xmlns="http://www.w3.org/2000/svg" xmlns:xlink="http://www.w3.org/1999/xlink" x="0px" y="0px"
	 viewBox="0 0 1657 403" style="enable-background:new 0 0 1657 403;" xml:space="preserve">
<style type="text/css">
	.st0{fill:#FFFFFF;stroke:#1E0E00;stroke-width:2;stroke-miterlimit:10;}
	.st1{fill:#FFFFFF;stroke:#201600;stroke-width:2;stroke-miterlimit:10;}
	.st2{fill:none;stroke:#201600;stroke-width:2;stroke-miterlimit:10;}
	.st3{fill:none;stroke:#1E0E00;stroke-width:2;stroke-miterlimit:10;}
	.st4{fill:none;stroke:#1E0E00;stroke-width:2;stroke-linejoin:round;stroke-miterlimit:10;}
	.st5{fill:none;stroke:#000000;stroke-width:2;stroke-miterlimit:10;}
	.st6{fill:#FFFFFF;stroke:#000000;stroke-width:2;stroke-miterlimit:10;}
	.st7{fill:#FFFFFF;stroke:#201600;stroke-width:2;stroke-linecap:round;stroke-linejoin:round;stroke-miterlimit:10;}
	.st8{fill:#FFFFFF;}
</style>
<line class="st2" x1="218.6" y1="282.7" x2="218.6" y2="358.6"/>
<line class="st2" x1="227.9" y1="282.7" x2="227.9" y2="358.6"/>
<line class="st2" x1="237.2" y1="282.7" x2="237.2" y2="358.6"/>
<line class="st2" x1="246.5" y1="282.7" x2="246.5" y2="358.6"/>
<line class="st2" x1="255.8" y1="282.7" x2="255.8" y2="358.6"/>
<line class="st2" x1="265.2" y1="282.7" x2="265.2" y2="358.6"/>
<line class="st2" x1="274.5" y1="282.7" x2="274.5" y2="358.6"/>
<line class="st2" x1="283.7" y1="282.7" x2="283.7" y2="358.6"/>
<line class="st2" x1="292.8" y1="282.7" x2="292.8" y2="358.6"/>
<rect x="209.3" y="273.6" class="st2" width="92.6" height="94.1"/>
<line class="st2" x1="209.3" y1="282.7" x2="301.9" y2="282.7"/>
<line class="st2" x1="209.3" y1="358.6" x2="301.9" y2="358.6"/>
<path class="st7" d="M286.2,358.6c-22.6-23.1-45.1-46.1-67.7-69.2c0-2.2,0-4.5,0-6.7c2.1,0,4.2,0,6.3,0
	c22.6,23.1,45.3,46.2,67.9,69.4c0,2.2,0,4.4,0,6.6C290.6,358.6,288.4,358.6,286.2,358.6z"/>
<path class="st7" d="M218.6,351.3c22.5-22.9,44.9-45.8,67.4-68.6c2.3,0,4.6,0,6.8,0c0,2.2,0,4.3,0,6.5
	c-22.2,23.1-44.4,46.3-66.7,69.4c-2.5,0-5,0-7.6,0C218.6,356.2,218.6,353.7,218.6,351.3z"/>
<line class="st2" x1="401.3" y1="245.6" x2="401.3" y2="354.6"/>
<line class="st2" x1="414.7" y1="245.6" x2="414.7" y2="354.6"/>
<line class="st2" x1="428.1" y1="245.6" x2="428.1" y2="354.6"/>
<line class="st2" x1="441.4" y1="245.6" x2="441.4" y2="354.6"/>
<line class="st2" x1="454.8" y1="245.6" x2="454.8" y2="354.6"/>
<line class="st2" x1="468.2" y1="245.6" x2="468.2" y2="354.6"/>
<line class="st2" x1="481.6" y1="245.6" x2="481.6" y2="354.6"/>
<line class="st2" x1="494.8" y1="245.6" x2="494.8" y2="354.6"/>
<line class="st2" x1="507.9" y1="245.6" x2="507.9" y2="354.6"/>
<rect x="387.9" y="232.5" class="st2" width="133" height="135.2"/>
<line class="st2" x1="387.9" y1="245.6" x2="521" y2="245.6"/>
<line class="st2" x1="387.9" y1="354.6" x2="521" y2="354.6"/>
<path class="st7" d="M498.5,354.6c-32.4-33.1-64.8-66.3-97.2-99.4c0-3.2,0-6.5,0-9.7c3,0,6,0,9,0c32.5,33.2,65.1,66.4,97.6,99.6
	c0,3.2,0,6.3,0,9.5C504.7,354.6,501.6,354.6,498.5,354.6z"/>
<path class="st7" d="M401.2,344.1c32.3-32.9,64.5-65.7,96.8-98.6c3.3,0,6.6,0,9.8,0c0,3.1,0,6.2,0,9.4
	c-31.9,33.2-63.8,66.5-95.7,99.7c-3.6,0-7.2,0-10.8,0C401.3,351.1,401.3,347.6,401.2,344.1z"/>
<line class="st2" x1="621.6" y1="186.9" x2="621.6" y2="348.4"/>
<line class="st2" x1="641.4" y1="186.9" x2="641.4" y2="348.4"/>
<line class="st2" x1="661.2" y1="186.9" x2="661.2" y2="348.4"/>
<line class="st2" x1="681" y1="186.9" x2="681" y2="348.4"/>
<line class="st2" x1="700.8" y1="186.9" x2="700.8" y2="348.4"/>
<line class="st2" x1="720.6" y1="186.9" x2="720.6" y2="348.4"/>
<line class="st2" x1="740.4" y1="186.9" x2="740.4" y2="348.4"/>
<line class="st2" x1="760" y1="186.9" x2="760" y2="348.4"/>
<line class="st2" x1="779.3" y1="186.9" x2="779.3" y2="348.4"/>
<rect x="601.8" y="167.6" class="st2" width="196.9" height="200.1"/>
<line class="st2" x1="601.8" y1="186.9" x2="798.7" y2="186.9"/>
<line class="st2" x1="601.8" y1="348.4" x2="798.7" y2="348.4"/>
<path class="st7" d="M765.4,348.4c-47.9-49-95.9-98.1-143.8-147.1c0-4.8,0-9.5,0-14.3c4.4,0,8.9,0,13.3,0
	c48.1,49.1,96.3,98.3,144.4,147.4c0,4.7,0,9.3,0,14C774.7,348.4,770.1,348.4,765.4,348.4z"/>
<path class="st7" d="M621.5,332.8c47.8-48.6,95.5-97.3,143.3-145.9c4.8,0,9.7,0,14.5,0c0,4.6,0,9.2,0,13.8
	c-47.2,49.2-94.5,98.4-141.7,147.6c-5.3,0-10.7,0-16,0C621.6,343.2,621.6,338,621.5,332.8z"/>
<line class="st2" x1="907.8" y1="134.9" x2="907.8" y2="342.8"/>
<line class="st2" x1="933.3" y1="134.9" x2="933.3" y2="342.8"/>
<line class="st2" x1="958.8" y1="134.9" x2="958.8" y2="342.8"/>
<line class="st2" x1="984.3" y1="134.9" x2="984.3" y2="342.8"/>
<line class="st2" x1="1009.8" y1="134.9" x2="1009.8" y2="342.8"/>
<line class="st2" x1="1035.3" y1="134.9" x2="1035.3" y2="342.8"/>
<line class="st2" x1="1060.8" y1="134.9" x2="1060.8" y2="342.8"/>
<line class="st2" x1="1086" y1="134.9" x2="1086" y2="342.8"/>
<line class="st2" x1="1110.9" y1="134.9" x2="1110.9" y2="342.8"/>
<rect x="882.3" y="110" class="st2" width="253.6" height="257.7"/>
<line class="st2" x1="882.3" y1="134.9" x2="1135.9" y2="134.9"/>
<line class="st2" x1="882.3" y1="342.8" x2="1135.9" y2="342.8"/>
<path class="st7" d="M1093,342.8c-61.7-63.2-123.5-126.3-185.2-189.5c0-6.1,0-12.3,0-18.4c5.7,0,11.4,0,17.1,0
	c62,63.3,124,126.6,186,189.9c0,6,0,12,0,18C1104.9,342.8,1099,342.8,1093,342.8z"/>
<path class="st7" d="M907.7,322.7c61.5-62.6,123-125.3,184.5-187.9c6.2,0,12.5,0,18.7,0c0,5.9,0,11.9,0,17.8
	c-60.8,63.4-121.7,126.7-182.5,190.1c-6.9,0-13.8,0-20.7,0C907.7,336.1,907.7,329.4,907.7,322.7z"/>
<line class="st2" x1="1256.5" y1="74.6" x2="1256.5" y2="336.3"/>
<line class="st2" x1="1288.6" y1="74.6" x2="1288.6" y2="336.3"/>
<line class="st2" x1="1320.7" y1="74.6" x2="1320.7" y2="336.3"/>
<line class="st2" x1="1352.8" y1="74.6" x2="1352.8" y2="336.3"/>
<line class="st2" x1="1384.9" y1="74.6" x2="1384.9" y2="336.3"/>
<line class="st2" x1="1417" y1="74.6" x2="1417" y2="336.3"/>
<line class="st2" x1="1449.1" y1="74.6" x2="1449.1" y2="336.3"/>
<line class="st2" x1="1480.8" y1="74.6" x2="1480.8" y2="336.3"/>
<line class="st2" x1="1512.2" y1="74.6" x2="1512.2" y2="336.3"/>
<rect x="1224.4" y="43.3" class="st2" width="319.3" height="324.5"/>
<line class="st2" x1="1224.4" y1="74.6" x2="1543.7" y2="74.6"/>
<line class="st2" x1="1224.4" y1="336.3" x2="1543.7" y2="336.3"/>
<path class="st7" d="M1489.7,336.4c-77.7-79.5-155.4-159-233.1-238.6c0-7.7,0-15.5,0-23.2c7.2,0,14.4,0,21.6,0
	c78.1,79.7,156.1,159.4,234.2,239c0,7.6,0,15.1,0,22.7C1504.7,336.4,1497.2,336.4,1489.7,336.4z"/>
<path class="st7" d="M1256.4,311.1c77.4-78.8,154.9-157.7,232.3-236.5c7.9,0,15.7,0,23.6,0c0,7.5,0,15,0,22.4
	c-76.6,79.8-153.1,159.5-229.7,239.3c-8.7,0-17.3,0-26,0C1256.5,327.9,1256.4,319.5,1256.4,311.1z"/>
<rect x="120.4" y="340.7" class="st2" width="27.8" height="27.8"/>
<line class="st2" x1="120.4" y1="340.7" x2="148.2" y2="368.5"/>
<line class="st2" x1="120.4" y1="368.5" x2="148.2" y2="340.7"/>
</svg>
