<?xml version="1.0" encoding="utf-8"?>
<!-- Generator: Adobe Illustrator 22.1.0, SVG Export Plug-In . SVG Version: 6.00 Build 0)  -->
<svg version="1.1" id="Слой_1" xmlns="http://www.w3.org/2000/svg" xmlns:xlink="http://www.w3.org/1999/xlink" x="0px" y="0px"
	 viewBox="0 0 565 414.7" style="enable-background:new 0 0 565 414.7;" xml:space="preserve">
<style type="text/css">
	.st0{fill:none;stroke:#201600;stroke-width:2;stroke-miterlimit:10;}
	.st1{fill:#FFFFFF;stroke:#201600;stroke-width:2;stroke-miterlimit:10;}
	.st2{fill:#FFFFFF;stroke:#201600;stroke-width:2;stroke-linecap:round;stroke-linejoin:round;stroke-miterlimit:10;}
	.st3{fill:none;stroke:#000000;stroke-width:2;stroke-miterlimit:10;}
	.st4{fill:#FFFFFF;stroke:#000000;stroke-width:2;stroke-miterlimit:10;}
	.st5{fill:#201600;}
</style>
<line class="st0" x1="82.1" y1="103" x2="82.1" y2="309.8"/>
<line class="st0" x1="107.5" y1="103" x2="107.5" y2="309.8"/>
<line class="st0" x1="132.8" y1="103" x2="132.8" y2="309.8"/>
<line class="st0" x1="158.2" y1="103" x2="158.2" y2="309.8"/>
<line class="st0" x1="183.6" y1="103" x2="183.6" y2="309.8"/>
<line class="st0" x1="208.9" y1="103" x2="208.9" y2="309.8"/>
<line class="st0" x1="234.3" y1="103" x2="234.3" y2="309.8"/>
<line class="st0" x1="259.3" y1="103" x2="259.3" y2="309.8"/>
<line class="st0" x1="284.2" y1="103" x2="284.2" y2="309.8"/>
<line class="st0" x1="309" y1="103" x2="309" y2="309.8"/>
<line class="st0" x1="334.4" y1="103" x2="334.4" y2="309.8"/>
<line class="st0" x1="359.7" y1="103" x2="359.7" y2="309.8"/>
<line class="st0" x1="385.1" y1="103" x2="385.1" y2="309.8"/>
<line class="st0" x1="410.5" y1="103" x2="410.5" y2="309.8"/>
<line class="st0" x1="435.8" y1="103" x2="435.8" y2="309.8"/>
<line class="st0" x1="461.2" y1="103" x2="461.2" y2="309.8"/>
<line class="st0" x1="486.2" y1="103" x2="486.2" y2="309.8"/>
<line class="st0" x1="511.1" y1="103" x2="511.1" y2="309.8"/>
<rect x="31.7" y="194" transform="matrix(0.9136 0.4067 -0.4067 0.9136 108.4895 -97.6271)" class="st1" width="504.4" height="24.8"/>
<rect x="30" y="195.1" transform="matrix(-0.9136 0.4067 -0.4067 -0.9136 624.4189 282.2901)" class="st1" width="504.4" height="24.8"/>
<rect x="31.7" y="79.2" class="st1" width="25.1" height="255.4"/>
<rect x="511.1" y="79.2" class="st1" width="25.1" height="255.4"/>
<rect x="31.7" y="79.2" class="st1" width="504.4" height="24.8"/>
<rect x="31.7" y="309.8" class="st1" width="504.4" height="24.8"/>
<rect x="183.6" y="175.3" class="st1" width="201.5" height="62.6"/>
<g>
	<path class="st5" d="M253.1,205.8v3.2h4.9c-0.8,2.7-2.6,3.5-5.1,3.5c-3.2,0-5.3-2.3-5.3-5.7c0-3.2,1.9-5.7,5.3-5.7
		c2,0,3.5,0.7,4.4,2.4h3.8c-1-4.2-4.6-6-8.1-6c-4.7,0-9.2,3.2-9.2,9.2c0,6,4.4,9.2,9.2,9.2c3.5,0,6.7-1.5,8-5.1
		c0.6-1.7,0.6-3.3,0.5-5.1L253.1,205.8L253.1,205.8z"/>
	<polygon class="st5" points="225.3,208.3 239.8,208.3 241.2,205 224.9,205 	"/>
	<rect x="224.9" y="212.3" class="st5" width="10.9" height="3.3"/>
	<polygon class="st5" points="212.2,206.3 204.9,197.8 203.5,197.8 203.5,215.8 207.4,215.8 207.4,206.1 211.9,211.7 212.4,211.7 
		216.9,206.1 216.9,215.8 220.8,215.8 220.8,197.8 219.4,197.8 	"/>
	<polygon class="st5" points="237.2,212.3 237.2,215.6 241,215.6 241,214.1 239.9,212.3 	"/>
	<polygon class="st5" points="240.5,201.1 241.2,199.6 238.1,197.7 227.3,197.6 225.7,196.6 224.1,196.6 225.1,201.1 	"/>
	<polygon class="st5" points="343.3,208 333.2,197.7 332,197.7 332,215.8 335.8,215.8 335.8,205.5 346,215.9 347.1,215.9 
		347.1,197.8 343.3,197.8 	"/>
	<path class="st5" d="M270.3,197.6l-8.3,17.6v0.5h4l1.4-3h7.5l1.4,3h4v-0.5l-8.3-17.6C272,197.6,270.3,197.6,270.3,197.6z
		 M268.7,209.5l2.5-5.9l2.5,5.9H268.7z"/>
	<path class="st5" d="M357.7,205.2c-1.9-0.2-3.5-0.6-3.5-2.2c0-1.4,1.5-2.2,3.1-2.2c1.5,0,3.1,0.6,3.2,2.1h3.6c0-4-3.5-5.5-6.9-5.5
		c-3.6,0-6.8,1.7-6.8,5.6c0,3.8,3.3,4.8,6.5,5.1c1.7,0.1,3.9,0.3,3.9,2.4c0,1.9-1.9,2.3-3.5,2.3c-1.8,0-3.5-0.7-3.6-2.3h-3.7
		c0,3.9,3.8,5.7,7.3,5.7c3.5-0.1,7.2-1.4,7.2-5.6C364.9,206.4,361.6,205.5,357.7,205.2z"/>
	<path class="st5" d="M320,197.6l-8.3,17.6v0.5h4l1.4-3h7.5l1.4,3h4v-0.5l-8.3-17.6C321.7,197.6,320,197.6,320,197.6z M318.4,209.5
		l2.5-5.9l2.5,5.9H318.4z"/>
	<path class="st5" d="M309.3,204c0-3.2-2.2-6.1-6.4-6.1c-2.6,0-5.1,0-7.7,0v18h3.9v-6h3.2l3.7,5.9h4.1v-0.5l-4-6
		C308.1,208.2,309.3,206.2,309.3,204z M302.9,206.6H299v-5.5h3.9c1.7,0,2.7,1.2,2.7,2.7S304.5,206.6,302.9,206.6z"/>
	<polygon class="st5" points="279.3,201.1 284.1,201.1 284.1,215.8 287.9,215.8 287.9,201.1 292.6,201.1 292.6,197.8 279.3,197.8 	
		"/>
</g>
</svg>
