<?xml version="1.0" encoding="utf-8"?>
<!-- Generator: Adobe Illustrator 22.1.0, SVG Export Plug-In . SVG Version: 6.00 Build 0)  -->
<svg version="1.1" id="Слой_1" xmlns="http://www.w3.org/2000/svg" xmlns:xlink="http://www.w3.org/1999/xlink" x="0px" y="0px"
	 viewBox="0 0 1555.9 403" style="enable-background:new 0 0 1555.9 403;" xml:space="preserve">
<style type="text/css">
	.st0{fill:none;stroke:#000000;stroke-width:2;stroke-linejoin:round;stroke-miterlimit:10;}
	.st1{fill:none;stroke:#000000;stroke-width:2;stroke-miterlimit:10;}
	.st2{fill:#FFFFFF;stroke:#000000;stroke-width:2;stroke-miterlimit:10;}
	.st3{fill:none;stroke:#201600;stroke-width:2;stroke-miterlimit:10;}
	.st4{fill:#FFFFFF;stroke:#201600;stroke-width:2;stroke-miterlimit:10;}
	.st5{fill:none;stroke:#1E0E00;stroke-width:2;stroke-miterlimit:10;}
	.st6{fill:none;stroke:#1E0E00;stroke-width:2;stroke-linejoin:round;stroke-miterlimit:10;}
</style>
<g>
	
		<rect x="1388.9" y="154.9" transform="matrix(0.9621 0.2727 -0.2727 0.9621 121.131 -377.3133)" class="st3" width="58.1" height="184.4"/>
	
		<rect x="1343.6" y="196.8" transform="matrix(0.9621 0.2727 -0.2727 0.9621 122.8136 -361.8991)" class="st3" width="39.5" height="128.2"/>
	
		<rect x="1437.5" y="223.4" transform="matrix(0.9621 0.2727 -0.2727 0.9621 133.6285 -386.4916)" class="st3" width="39.5" height="128.2"/>
	
		<rect x="1476.9" y="223.5" transform="matrix(0.9621 0.2727 -0.2727 0.9621 136.6328 -397.0389)" class="st3" width="39.5" height="139"/>
	
		<rect x="1307.1" y="175.4" transform="matrix(0.9621 0.2727 -0.2727 0.9621 117.071 -352.5561)" class="st3" width="39.5" height="139"/>
	
		<rect x="1340.8" y="158.8" transform="matrix(0.9621 0.2727 -0.2727 0.9621 97.0683 -361.2855)" class="st3" width="14.8" height="19.5"/>
	
		<rect x="1510.9" y="207" transform="matrix(0.9621 0.2727 -0.2727 0.9621 116.6548 -405.8244)" class="st3" width="14.8" height="19.5"/>
	<line class="st3" x1="1400.6" y1="240.2" x2="1375" y2="330.8"/>
	<line class="st3" x1="1409.3" y1="242.7" x2="1383.6" y2="333.2"/>
	<line class="st3" x1="1418" y1="245.2" x2="1392.3" y2="335.7"/>
	<line class="st3" x1="1426.6" y1="247.6" x2="1401" y2="338.2"/>
	<line class="st3" x1="1435.3" y1="250.1" x2="1409.6" y2="340.6"/>
	<line class="st3" x1="1412.4" y1="198.7" x2="1403.5" y2="230"/>
	<line class="st3" x1="1421.1" y1="201.1" x2="1412.2" y2="232.5"/>
	<line class="st3" x1="1429.7" y1="203.6" x2="1420.9" y2="234.9"/>
	<line class="st3" x1="1438.4" y1="206" x2="1429.5" y2="237.4"/>
	<line class="st3" x1="1447.1" y1="208.5" x2="1438.2" y2="239.8"/>
	<line class="st3" x1="1424" y1="157.8" x2="1415.1" y2="189.2"/>
	<line class="st3" x1="1432.7" y1="160.3" x2="1423.8" y2="191.6"/>
	<line class="st3" x1="1441.3" y1="162.7" x2="1432.4" y2="194.1"/>
	<line class="st3" x1="1450" y1="165.2" x2="1441.1" y2="196.5"/>
	<line class="st3" x1="1458.7" y1="167.7" x2="1449.8" y2="199"/>
	<line class="st3" x1="1445.2" y1="296.6" x2="1431.1" y2="346.7"/>
	<line class="st3" x1="1453.9" y1="299.1" x2="1439.7" y2="349.1"/>
	<line class="st3" x1="1462.6" y1="301.6" x2="1448.4" y2="351.6"/>
	<line class="st3" x1="1456.7" y1="256.1" x2="1447.7" y2="288"/>
	<line class="st3" x1="1465.4" y1="258.6" x2="1456.4" y2="290.4"/>
	<line class="st3" x1="1474.1" y1="261.1" x2="1465" y2="292.9"/>
	<line class="st3" x1="1464.5" y1="228.8" x2="1459.5" y2="246.2"/>
	<line class="st3" x1="1473.1" y1="231.2" x2="1468.2" y2="248.6"/>
	<line class="st3" x1="1481.8" y1="233.7" x2="1476.9" y2="251.1"/>
	<line class="st3" x1="1351.3" y1="270.3" x2="1337.1" y2="320.3"/>
	<line class="st3" x1="1359.9" y1="272.8" x2="1345.8" y2="322.8"/>
	<line class="st3" x1="1368.6" y1="275.2" x2="1354.4" y2="325.3"/>
	<line class="st3" x1="1362.8" y1="229.8" x2="1353.7" y2="261.7"/>
	<line class="st3" x1="1371.4" y1="232.3" x2="1362.4" y2="264.1"/>
	<line class="st3" x1="1380.1" y1="234.7" x2="1371.1" y2="266.6"/>
	<line class="st3" x1="1370.5" y1="202.4" x2="1365.6" y2="219.8"/>
	<line class="st3" x1="1379.2" y1="204.9" x2="1374.3" y2="222.3"/>
	<line class="st3" x1="1387.9" y1="207.3" x2="1382.9" y2="224.7"/>
	<line class="st3" x1="1499" y1="268.1" x2="1490" y2="300"/>
	<line class="st3" x1="1507.7" y1="270.6" x2="1498.7" y2="302.4"/>
	<line class="st3" x1="1487.5" y1="308.6" x2="1473.4" y2="358.7"/>
	<line class="st3" x1="1496.2" y1="311.1" x2="1482" y2="361.1"/>
	<line class="st3" x1="1509.9" y1="229.6" x2="1501.8" y2="258.1"/>
	<line class="st3" x1="1518.6" y1="232" x2="1510.5" y2="260.6"/>
	<line class="st3" x1="1329" y1="219.9" x2="1320" y2="251.8"/>
	<line class="st3" x1="1337.7" y1="222.4" x2="1328.6" y2="254.2"/>
	<line class="st3" x1="1317.5" y1="260.4" x2="1303.3" y2="310.5"/>
	<line class="st3" x1="1326.2" y1="262.9" x2="1312" y2="312.9"/>
	<line class="st3" x1="1339.9" y1="181.4" x2="1331.8" y2="210"/>
	<line class="st3" x1="1348.6" y1="183.8" x2="1340.5" y2="212.4"/>
	<line class="st3" x1="1316" y1="210.7" x2="1523.8" y2="269.6"/>
	<line class="st3" x1="1303.7" y1="252.2" x2="1380.2" y2="273.8"/>
	<line class="st3" x1="1435.6" y1="289.5" x2="1512" y2="311.2"/>
	<line class="st3" x1="1403.2" y1="190.5" x2="1459.2" y2="206.4"/>
	
		<rect x="1415.6" y="146.8" transform="matrix(0.9621 0.2727 -0.2727 0.9621 96.3963 -388.1907)" class="st3" width="58.1" height="11.8"/>
	
		<rect x="1419.8" y="128.9" transform="matrix(0.9621 0.2727 -0.2727 0.9621 90.7745 -383.5068)" class="st3" width="10.5" height="11.8"/>
	
		<rect x="1464.6" y="141.7" transform="matrix(0.9621 0.2727 -0.2727 0.9621 95.9929 -395.3734)" class="st3" width="11.5" height="11.8"/>
	
		<rect x="1440.3" y="121.6" transform="matrix(0.9621 0.2727 -0.2727 0.9621 91.6072 -390.1459)" class="st3" width="18" height="25.7"/>
	
		<rect x="1446.1" y="118.3" transform="matrix(0.9621 0.2727 -0.2727 0.9621 87.8713 -391.7623)" class="st3" width="14.4" height="3.8"/>
	
		<rect x="1457.7" y="77.9" transform="matrix(0.9621 0.2727 -0.2727 0.9621 82.1832 -394.2637)" class="st3" width="3.5" height="41.3"/>
</g>
<path class="st3" d="M1261.6,254.2l1.9,0.4c0.7,0.2,1.5-0.3,1.6-1c0.2-0.7-0.3-1.5-1-1.6l-2.9-0.6l-1.1-6.6l3-16.5l2.2,0.5
	c0.7,0.2,1.5-0.3,1.6-1c0.2-0.7-0.3-1.5-1-1.6l-2.3-0.5l4.6-25.1l3,0.6c0.7,0.2,1.5-0.3,1.6-1v0c0.2-0.7-0.3-1.5-1-1.6l-3-0.6
	l0.5-2.5l3.1,0.7c0.7,0.2,1.5-0.3,1.6-1c0.2-0.7-0.3-1.5-1-1.6l-3.2-0.7l0.5-2.5l3.2,0.7c0.7,0.2,1.5-0.3,1.6-1
	c0.2-0.7-0.3-1.5-1-1.6l-3.3-0.7l0.9-5l3.4,0.7c0.7,0.2,1.5-0.3,1.6-1s-0.3-1.5-1-1.6l-3.5-0.7l10.2-55.5l2.8,0.6
	c1.1,0.2,2.2-0.5,2.5-1.6l1.2-5.8c0.2-1.1-0.5-2.2-1.6-2.5l-1-0.2l2.1-9.8l3.2,0.7c0.7,0.2,1.5-0.3,1.6-1c0.2-0.7-0.3-1.5-1-1.6
	l-5.6-1.2l4.2-22.9l4,0.9c1.1,0.2,2.2-0.5,2.5-1.6l1.3-6c0.9-0.1,1.7-0.7,1.9-1.6l2.4-11.5c0.2-1.1-0.5-2.2-1.6-2.5l-5.6-1.2
	c1.1,0.2,2.2-0.5,2.5-1.6l1.6-7.6c0.2-1.1-0.5-2.2-1.6-2.5l-0.8-0.2l6.8-36.8l-8.7,36.4l-0.7-0.1c-1.1-0.2-2.2,0.5-2.5,1.6l-1.6,7.6
	c-0.2,1.1,0.5,2.2,1.6,2.5l-5.8-1.2c-1.1-0.2-2.2,0.5-2.5,1.6l-2.4,11.5c-0.2,1,0.3,1.9,1.2,2.3l-1.3,5.9c-0.2,1.1,0.5,2.2,1.6,2.5
	l3.9,0.8l-5.4,22.6l-5.6-1.2c-0.7-0.2-1.5,0.3-1.6,1c-0.2,0.7,0.3,1.5,1,1.6l3.2,0.7l-2.1,9.8l-0.9-0.2c-1.1-0.2-2.2,0.5-2.5,1.6
	l-1.2,5.8c-0.2,1.1,0.5,2.2,1.6,2.5l2.7,0.6l-13.1,54.9l-3.5-0.7c-0.7-0.2-1.5,0.3-1.6,1c-0.2,0.7,0.3,1.5,1,1.6l3.5,0.7l-1.2,5
	l-3.3-0.7c-0.7-0.2-1.5,0.3-1.6,1c-0.2,0.7,0.3,1.5,1,1.6l3.3,0.7l-0.6,2.4l-3.2-0.7c-0.7-0.2-1.5,0.3-1.6,1c-0.2,0.7,0.3,1.5,1,1.6
	l3.1,0.7l-0.6,2.4l-3.1-0.6c-0.7-0.2-1.5,0.3-1.6,1v0c-0.2,0.7,0.3,1.5,1,1.6l3,0.6L1252,223l-2.3-0.5c-0.7-0.2-1.5,0.3-1.6,1
	c-0.2,0.7,0.3,1.5,1,1.6l2.3,0.5l-3.7,15.6c-1.3,2.1-2.7,4.2-4,6.3l-3-0.6c-0.7-0.2-1.5,0.3-1.6,1c-0.2,0.7,0.3,1.5,1,1.6l2,0.4
	c-8,12.7-16.1,25.3-24.1,38c1.7,0.3,3.3,0.7,5,1c3.7-5.1,7.5-10.3,11.2-15.4c-0.7,5.8-1.4,11.6-2.1,17.3c1.5,0.3,3,0.6,4.6,1
	c3.5-5.2,7-10.4,10.5-15.6c1.1,6.2,2.2,12.4,3.3,18.6c1.2,0.2,2.3,0.5,3.5,0.7c1.8-5.5,3.6-11,5.5-16.5c1.7,6.3,3.4,12.5,5.1,18.8
	c1.7,0.4,3.3,0.7,5,1.1L1261.6,254.2z"/>
<path class="st4" d="M1543,382.3c-168.4-64.3-435.4-143.3-770.7-149.6c-328.1-6.2-592.8,59.7-762.2,116"/>
<path class="st1" d="M862,142.8c-3,0.9-9.1,2.6-23.1,3.3c-7.2,0.4-12,0.3-12,0.3c-6.4-0.1-19.8-0.1-38.9-0.1
	c-21.2,0-38.3,0.1-72.7,0.1c-5,0-14.8,0-27.5-1.8c-7.3-1-12.5-2.2-19.3-3.7c-22.3-6.7-38.1-13-39.9-15.3c-1.7-2.1-2.1-4.4-2.1-4.4
	c-0.1-1,0-1.8,0-2.1c0-0.2,0.4-2.5,2.1-4c1.6-1.5,3.7-1.7,4.7-1.8c21.5-1.6,32.3-2.4,40.8-2.4c4.7,0,9.4-0.2,14.1-0.3
	c86.7-0.8,95.5,0.8,121.9,0.5c5-0.1,10.1,0.3,15.1,0.6c14.7,0.9,18.9,2,21.1,3.4c0.1,0.1,0.5,0.3,1,0.7c3.8,2.7,5.6,4.8,7,5.9
	c2.2,1.8,2.5,0.7,9.9,3.3c9.5,3.3,10.6,5.8,11,7.1c0,0.2,0.2,1,0.1,2C874.4,138.8,866.6,141.4,862,142.8z"/>
<path class="st1" d="M685.4,126.3h-1.7c-0.9,0-1.6-0.7-1.6-1.6v-2.4c0-0.9,0.7-1.6,1.6-1.6h1.7c0.9,0,1.6,0.7,1.6,1.6v2.4
	C687,125.6,686.3,126.3,685.4,126.3z"/>
<path class="st1" d="M694.7,126.3H693c-0.9,0-1.6-0.7-1.6-1.6v-2.4c0-0.9,0.7-1.6,1.6-1.6h1.7c0.9,0,1.6,0.7,1.6,1.6v2.4
	C696.4,125.6,695.6,126.3,694.7,126.3z"/>
<path class="st1" d="M704.1,126.3h-1.7c-0.9,0-1.6-0.7-1.6-1.6v-2.4c0-0.9,0.7-1.6,1.6-1.6h1.7c0.9,0,1.6,0.7,1.6,1.6v2.4
	C705.7,125.6,705,126.3,704.1,126.3z"/>
<path class="st1" d="M713.5,126.3h-1.7c-0.9,0-1.6-0.7-1.6-1.6v-2.4c0-0.9,0.7-1.6,1.6-1.6h1.7c0.9,0,1.6,0.7,1.6,1.6v2.4
	C715.1,125.6,714.4,126.3,713.5,126.3z"/>
<path class="st1" d="M722.9,126.3h-1.7c-0.9,0-1.6-0.7-1.6-1.6v-2.4c0-0.9,0.7-1.6,1.6-1.6h1.7c0.9,0,1.6,0.7,1.6,1.6v2.4
	C724.5,125.6,723.8,126.3,722.9,126.3z"/>
<path class="st1" d="M732.3,126.3h-1.7c-0.9,0-1.6-0.7-1.6-1.6v-2.4c0-0.9,0.7-1.6,1.6-1.6h1.7c0.9,0,1.6,0.7,1.6,1.6v2.4
	C733.9,125.6,733.1,126.3,732.3,126.3z"/>
<path class="st1" d="M741.6,126.3h-1.7c-0.9,0-1.6-0.7-1.6-1.6v-2.4c0-0.9,0.7-1.6,1.6-1.6h1.7c0.9,0,1.6,0.7,1.6,1.6v2.4
	C743.2,125.6,742.5,126.3,741.6,126.3z"/>
<path class="st1" d="M751,126.3h-1.7c-0.9,0-1.6-0.7-1.6-1.6v-2.4c0-0.9,0.7-1.6,1.6-1.6h1.7c0.9,0,1.6,0.7,1.6,1.6v2.4
	C752.6,125.6,751.9,126.3,751,126.3z"/>
<path class="st1" d="M760.4,126.3h-1.7c-0.9,0-1.6-0.7-1.6-1.6v-2.4c0-0.9,0.7-1.6,1.6-1.6h1.7c0.9,0,1.6,0.7,1.6,1.6v2.4
	C762,125.6,761.3,126.3,760.4,126.3z"/>
<path class="st1" d="M769.8,126.3h-1.7c-0.9,0-1.6-0.7-1.6-1.6v-2.4c0-0.9,0.7-1.6,1.6-1.6h1.7c0.9,0,1.6,0.7,1.6,1.6v2.4
	C771.4,125.6,770.7,126.3,769.8,126.3z"/>
<path class="st1" d="M779.1,126.3h-1.7c-0.9,0-1.6-0.7-1.6-1.6v-2.4c0-0.9,0.7-1.6,1.6-1.6h1.7c0.9,0,1.6,0.7,1.6,1.6v2.4
	C780.8,125.6,780,126.3,779.1,126.3z"/>
<path class="st1" d="M788.5,126.3h-1.7c-0.9,0-1.6-0.7-1.6-1.6v-2.4c0-0.9,0.7-1.6,1.6-1.6h1.7c0.9,0,1.6,0.7,1.6,1.6v2.4
	C790.1,125.6,789.4,126.3,788.5,126.3z"/>
<path class="st1" d="M797.9,126.3h-1.7c-0.9,0-1.6-0.7-1.6-1.6v-2.4c0-0.9,0.7-1.6,1.6-1.6h1.7c0.9,0,1.6,0.7,1.6,1.6v2.4
	C799.5,125.6,798.8,126.3,797.9,126.3z"/>
<path class="st1" d="M807.3,126.3h-1.7c-0.9,0-1.6-0.7-1.6-1.6v-2.4c0-0.9,0.7-1.6,1.6-1.6h1.7c0.9,0,1.6,0.7,1.6,1.6v2.4
	C808.9,125.6,808.2,126.3,807.3,126.3z"/>
<path class="st1" d="M816.7,126.3h-1.7c-0.9,0-1.6-0.7-1.6-1.6v-2.4c0-0.9,0.7-1.6,1.6-1.6h1.7c0.9,0,1.6,0.7,1.6,1.6v2.4
	C818.3,125.6,817.5,126.3,816.7,126.3z"/>
<path class="st1" d="M777.4,142c-4,0.1-77.4-4.6-115-8.1c-0.7-0.1-1.2-0.5-1.2-0.8c0-0.4,0.6-0.9,1.7-0.9c5-0.1,125.6,1.3,126.8,1.2
	c0,0,0.1,0,0.3,0c1.2,0.1,1.9,1.1,2,1.1c0.3,0.4,0.4,0.8,0.5,1c0.4,1.5-1.1,3.1-3.7,4.1C785,140.6,781.3,141.9,777.4,142z"/>
<path class="st2" d="M657.6,122.6c-30.5-2.6-52.8-4.5-53.7-4.5c-0.2,0-0.8-0.1-1-0.5c0,0-0.1-0.2-0.1-0.5c0.1-0.3,0.5-0.6,0.9-0.6
	c37.9,0.4,55.8,0.6,56.1,0.5c0,0,0,0,0,0c0,0,0.5,0,1,0.4c0.5,0.4,1,2.1,0.2,3.5C660.4,122.1,659.1,122.7,657.6,122.6z"/>
<path class="st2" d="M780.8,154.5c-12.2-0.7-24.5-1.4-36.7-2.1c-0.4-0.1-1.9-0.4-3-1.8c-1.1-1.4-1.1-3-1.1-3.4c0-2.3,0-4.6,0-6.9
	c0-1.7,1.4-3,3-3h37.8c1.7,0,3,1.4,3,3v11.1C783.8,153.2,782.4,154.5,780.8,154.5z"/>
<line class="st1" x1="778.3" y1="137.4" x2="778.3" y2="154.4"/>
<line class="st1" x1="744.5" y1="137.4" x2="744.5" y2="152.5"/>
<path class="st1" d="M849.2,117.1l-2.5,0.6c-1.1,0.3-1.8,1.5-1.4,2.5l1,2.7c0.4,1,1.4,1.5,2.4,1.1c1.9-0.7,3.8-1.4,5.7-2"/>
<path class="st1" d="M633.3,113.2C628,94.5,622.8,75.8,617.5,57c4.5,0.1,8.9,0.1,13.4,0.2c9.9,12.3,16.6,20.6,20.5,25.5
	c7.4,9.2,11.4,14.2,18.5,19.4c6,4.4,11.8,7,15.8,8.5"/>
</svg>
