<?xml version="1.0" encoding="utf-8"?>
<!-- Generator: Adobe Illustrator 22.1.0, SVG Export Plug-In . SVG Version: 6.00 Build 0)  -->
<svg version="1.1" id="Слой_1" xmlns="http://www.w3.org/2000/svg" xmlns:xlink="http://www.w3.org/1999/xlink" x="0px" y="0px"
	 viewBox="0 0 1555.9 403" style="enable-background:new 0 0 1555.9 403;" xml:space="preserve">
<style type="text/css">
	.st0{fill:none;stroke:#201600;stroke-width:2;stroke-miterlimit:10;}
	.st1{fill:none;stroke:#1E0E00;stroke-width:2;stroke-miterlimit:10;}
	.st2{fill:none;stroke:#1E0E00;stroke-width:2;stroke-linejoin:round;stroke-miterlimit:10;}
</style>
<g>
	<rect x="309.4" y="4" class="st0" width="1233.2" height="246.8"/>
	<rect x="330.4" y="16.6" class="st0" width="25.7" height="223.3"/>
	<rect x="377" y="16.6" class="st0" width="25.7" height="223.3"/>
	<rect x="423.6" y="16.6" class="st0" width="25.7" height="223.3"/>
	<rect x="470.3" y="16.6" class="st0" width="25.7" height="223.3"/>
	<rect x="516.9" y="16.6" class="st0" width="25.7" height="223.3"/>
	<rect x="563.4" y="16.6" class="st0" width="25.7" height="223.3"/>
	<rect x="610" y="16.6" class="st0" width="25.7" height="223.3"/>
	<rect x="656.6" y="16.6" class="st0" width="25.7" height="223.3"/>
	<rect x="703.2" y="16.6" class="st0" width="25.7" height="223.3"/>
	<rect x="749.8" y="16.6" class="st0" width="25.7" height="223.3"/>
	<rect x="796.5" y="16.6" class="st0" width="25.7" height="223.3"/>
	<rect x="843" y="16.6" class="st0" width="25.7" height="223.3"/>
	<rect x="889.6" y="16.6" class="st0" width="25.7" height="223.3"/>
	<rect x="936.2" y="16.6" class="st0" width="25.7" height="223.3"/>
	<rect x="982.8" y="16.6" class="st0" width="25.7" height="223.3"/>
	<rect x="1029.4" y="16.6" class="st0" width="25.7" height="223.3"/>
	<rect x="1076" y="16.6" class="st0" width="25.7" height="223.3"/>
	<rect x="1122.5" y="16.6" class="st0" width="25.7" height="223.3"/>
	<rect x="1169.2" y="16.6" class="st0" width="25.7" height="223.3"/>
	<rect x="1215.8" y="16.6" class="st0" width="25.7" height="223.3"/>
	<rect x="1262.4" y="16.6" class="st0" width="25.7" height="223.3"/>
	<rect x="1309" y="16.6" class="st0" width="25.7" height="223.3"/>
	<rect x="1355.6" y="16.6" class="st0" width="25.7" height="223.3"/>
	<rect x="1402.1" y="16.6" class="st0" width="25.7" height="223.3"/>
	<rect x="1448.7" y="16.6" class="st0" width="25.7" height="223.3"/>
	<rect x="1495.4" y="16.6" class="st0" width="25.7" height="223.3"/>
</g>
<circle class="st1" cx="1104.4" cy="341.7" r="50.5"/>
<circle class="st1" cx="1104.4" cy="341.7" r="29.8"/>
<circle class="st1" cx="1104.4" cy="341.7" r="13.4"/>
<path class="st1" d="M1158,315.4c-9.7-19.9-30.1-33.5-53.7-33.5c-33,0-59.9,26.8-59.9,59.9"/>
<g>
	<circle class="st1" cx="140.6" cy="346.4" r="50.5"/>
	<circle class="st1" cx="140.6" cy="346.4" r="29.8"/>
	<circle class="st1" cx="140.6" cy="346.4" r="13.4"/>
	<path class="st1" d="M200.4,346.4c0-33-26.8-59.9-59.9-59.9s-59.9,26.8-59.9,59.9"/>
</g>
<g>
	<circle class="st1" cx="561.9" cy="341.7" r="50.5"/>
	<circle class="st1" cx="561.9" cy="341.7" r="29.8"/>
	<circle class="st1" cx="561.9" cy="341.7" r="13.4"/>
	<path class="st2" d="M502,341.7c0-17.5,7.4-33.1,19.3-44H252.9V97.6L238.7,9.6h-30.4c-40,8.8-80.2,17.7-120.2,26.5L58.8,54.3
		C42,76.4,25.3,98.6,8.4,120.8c0,43.4,0,86.8,0,130.1c3.7,0,7.3,0,11,0c-6.5,9.9-12.9,19.7-19.4,29.7c0,24.8,0,49.7,0,74.6
		c26.3,0,52.8,0,79.1,0"/>
</g>
<g>
	<circle class="st1" cx="1211.8" cy="341.7" r="50.5"/>
	<circle class="st1" cx="1211.8" cy="341.7" r="29.8"/>
	<circle class="st1" cx="1211.8" cy="341.7" r="13.4"/>
	<path class="st1" d="M1265,314.3c-9.9-19.2-30-32.4-53.2-32.4c-23.6,0-44,13.6-53.7,33.5"/>
</g>
<g>
	<circle class="st1" cx="1318.2" cy="341.7" r="50.5"/>
	<circle class="st1" cx="1318.2" cy="341.7" r="29.8"/>
	<circle class="st1" cx="1318.2" cy="341.7" r="13.4"/>
	<path class="st1" d="M1378,341.7c0-33-26.8-59.9-59.9-59.9c-22.8,0-42.5,12.6-52.7,31.3"/>
</g>
<polyline class="st1" points="309.4,262.7 1542.5,262.7 1542.5,295 1538,295 1538,336.9 1555.9,336.9 1555.9,359.8 1538.3,359.8 
	1526.2,347.7 1526.2,326.9 1489.8,308.2 1378,308.2 "/>
<line class="st1" x1="1042.3" y1="307.4" x2="669.5" y2="307.4"/>
<rect x="206.1" y="98.2" class="st1" width="15.4" height="156"/>
<rect x="30.3" y="259.6" class="st1" width="205.8" height="5.6"/>
<rect x="9.6" y="202" class="st2" width="12.7" height="43.1"/>
<line class="st2" x1="130" y1="167.8" x2="130" y2="254.2"/>
<rect x="110.7" y="221.2" class="st2" width="19.3" height="18.7"/>
<path class="st2" d="M9.1,176.8c15.5-0.2,31.1-0.3,46.6-0.5l15-15h76v-56.9H69.3c-20.3,5.5-40.5,10.9-60.8,16.4"/>
<line class="st1" x1="200.4" y1="359.8" x2="501.2" y2="359.8"/>
<line class="st1" x1="666.5" y1="283.4" x2="309.4" y2="283.4"/>
<polyline class="st1" points="615,359.8 666.5,359.8 666.5,295.9 600.6,295.9 "/>
<rect x="703.2" y="316.8" class="st1" width="314.5" height="11.7"/>
<rect x="676.2" y="312" class="st1" width="12.5" height="47.8"/>
<rect x="221.5" y="316.8" class="st2" width="261.6" height="19"/>
<rect x="9.7" y="316.8" class="st2" width="59.7" height="19"/>
<line class="st2" x1="153.9" y1="98.2" x2="195.2" y2="98.2"/>
</svg>
