<?xml version="1.0" encoding="utf-8"?>
<!-- Generator: Adobe Illustrator 22.1.0, SVG Export Plug-In . SVG Version: 6.00 Build 0)  -->
<svg version="1.1" id="Слой_1" xmlns="http://www.w3.org/2000/svg" xmlns:xlink="http://www.w3.org/1999/xlink" x="0px" y="0px"
	 viewBox="0 0 1681.9 403" style="enable-background:new 0 0 1681.9 403;" xml:space="preserve">
<style type="text/css">
	.st0{fill:#FFFFFF;stroke:#1E0E00;stroke-width:2;stroke-miterlimit:10;}
	.st1{fill:#FFFFFF;stroke:#201600;stroke-width:2;stroke-miterlimit:10;}
	.st2{fill:none;stroke:#201600;stroke-width:2;stroke-miterlimit:10;}
	.st3{fill:none;stroke:#1E0E00;stroke-width:2;stroke-miterlimit:10;}
	.st4{fill:none;stroke:#1E0E00;stroke-width:2;stroke-linejoin:round;stroke-miterlimit:10;}
	.st5{fill:none;stroke:#000000;stroke-width:2;stroke-miterlimit:10;}
	.st6{fill:#FFFFFF;stroke:#000000;stroke-width:2;stroke-miterlimit:10;}
	.st7{fill:#FFFFFF;stroke:#201600;stroke-width:2;stroke-linecap:round;stroke-linejoin:round;stroke-miterlimit:10;}
	.st8{fill:#FFFFFF;}
</style>
<path class="st2" d="M218.2,368.9H98.9c-12.5,0-22.8-10.2-22.8-22.8V79.9c0-12.5,10.2-22.8,22.8-22.8h119.3
	c12.5,0,22.8,10.2,22.8,22.8v266.2C241,358.6,230.7,368.9,218.2,368.9z"/>
<path class="st2" d="M217.1,64.1H99.9c-9.1,0-16.6,7.5-16.6,16.6v264.5c0,9.1,7.5,16.6,16.6,16.6h117.2c9.1,0,16.6-7.5,16.6-16.6
	V80.7C233.7,71.6,226.3,64.1,217.1,64.1z M200.6,66.9c0,4.4-3.6,7.9-7.9,7.9H128c-4.4,0-7.9-3.6-7.9-7.9v-2.7h80.6V66.9z"/>
<path class="st2" d="M1418.6,368.9h-119.3c-12.5,0-22.8-10.2-22.8-22.8V79.8c0-12.5,10.2-22.8,22.8-22.8h119.3
	c12.5,0,22.8,10.2,22.8,22.8v266.2C1441.3,358.6,1431.1,368.9,1418.6,368.9z"/>
<path class="st2" d="M1417.5,64.1h-117.2c-9.1,0-16.6,7.5-16.6,16.6v264.5c0,9.1,7.5,16.6,16.6,16.6h117.2c9.1,0,16.6-7.5,16.6-16.6
	V80.7C1434.1,71.6,1426.6,64.1,1417.5,64.1z M1401,66.8c0,4.4-3.6,7.9-7.9,7.9h-64.7c-4.4,0-7.9-3.6-7.9-7.9v-2.7h80.6V66.8z"/>
<g>
	<path class="st2" d="M309.8,229.3c9.1-9.1,9.1-23.7,0-32.8"/>
	<path class="st2" d="M333.5,232.1c10.6-10.6,10.6-27.7,0-38.3"/>
	<path class="st2" d="M357.2,234.9c12.1-12.1,12.1-31.7,0-43.8"/>
	<path class="st2" d="M380.9,237.6c13.6-13.6,13.6-35.7,0-49.4"/>
	<path class="st2" d="M404.7,240.4c15.2-15.2,15.2-39.7,0-54.9"/>
	<path class="st2" d="M428.4,243.2c16.7-16.7,16.7-43.7,0-60.4"/>
	<path class="st2" d="M452.1,245.9c18.2-18.2,18.2-47.7,0-65.9"/>
	<path class="st2" d="M475.8,248.7c19.8-19.8,19.8-51.7,0-71.5"/>
	<path class="st2" d="M499.5,251.5c21.3-21.3,21.3-55.7,0-77"/>
	<path class="st2" d="M523.2,254.2c22.8-22.8,22.8-59.7,0-82.5"/>
	<path class="st2" d="M546.9,257c24.3-24.3,24.3-63.7,0-88"/>
	<path class="st2" d="M570.6,259.8c25.9-25.9,25.9-67.7,0-93.6"/>
	<path class="st2" d="M594.3,262.5c27.4-27.4,27.4-71.7,0-99.1"/>
	<path class="st2" d="M618,265.3c28.9-28.9,28.9-75.7,0-104.6"/>
	<path class="st2" d="M641.7,268c30.4-30.4,30.4-79.7,0-110.2"/>
	<path class="st2" d="M665.4,270.8c32-32,32-83.7,0-115.7"/>
	<path class="st2" d="M689.1,273.6c33.5-33.5,33.5-87.7,0-121.2"/>
	<path class="st2" d="M712.8,276.3c35-35,35-91.7,0-126.7"/>
	<path class="st2" d="M736.5,279.1c36.6-36.6,36.6-95.7,0-132.3"/>
	<path class="st2" d="M760.2,281.9c38.1-38.1,38.1-99.7,0-137.8"/>
	<path class="st2" d="M784,284.6c39.6-39.6,39.6-103.7,0-143.3"/>
	<path class="st2" d="M807.7,287.4c41.1-41.1,41.1-107.7,0-148.8"/>
	<path class="st2" d="M831.4,290.2c42.7-42.7,42.7-111.7,0-154.4"/>
	<path class="st2" d="M855.1,292.9c44.2-44.2,44.2-115.7,0-159.9"/>
	<path class="st2" d="M878.8,295.7c45.7-45.7,45.7-119.7,0-165.4"/>
	<path class="st2" d="M902.5,298.5c47.2-47.2,47.2-123.7,0-171"/>
	<path class="st2" d="M926.2,301.2c48.8-48.8,48.8-127.7,0-176.5"/>
	<path class="st2" d="M949.9,304c50.3-50.3,50.3-131.7,0-182"/>
	<path class="st2" d="M973.6,306.7c51.8-51.8,51.8-135.7,0-187.5"/>
	<path class="st2" d="M997.3,309.5c53.4-53.4,53.4-139.7,0-193.1"/>
	<path class="st2" d="M1021,312.3c54.9-54.9,54.9-143.7,0-198.6"/>
	<path class="st2" d="M1044.7,315c56.4-56.4,56.4-147.7,0-204.1"/>
	<path class="st2" d="M1068.4,317.8c57.9-57.9,57.9-151.7,0-209.6"/>
	<path class="st2" d="M1092.1,320.6c59.5-59.5,59.5-155.7,0-215.2"/>
	<path class="st2" d="M1115.8,323.3c61-61,61-159.7,0-220.7"/>
	<path class="st2" d="M1139.6,326.1c62.5-62.5,62.5-163.7,0-226.2"/>
	<path class="st2" d="M1163.3,328.9c64-64,64-167.7,0-231.7"/>
</g>
</svg>
