<?xml version="1.0" encoding="UTF-8" standalone="no"?>
<!-- Generator: Adobe Illustrator 20.1.0, SVG Export Plug-In . SVG Version: 6.00 Build 0)  -->

<svg
   xmlns:dc="http://purl.org/dc/elements/1.1/"
   xmlns:cc="http://creativecommons.org/ns#"
   xmlns:rdf="http://www.w3.org/1999/02/22-rdf-syntax-ns#"
   xmlns:svg="http://www.w3.org/2000/svg"
   xmlns="http://www.w3.org/2000/svg"
   xmlns:sodipodi="http://sodipodi.sourceforge.net/DTD/sodipodi-0.dtd"
   xmlns:inkscape="http://www.inkscape.org/namespaces/inkscape"
   version="1.1"
   id="Слой_1"
   x="0px"
   y="0px"
   viewBox="0 0 554.04443 554.04443"
   enable-background="new 0 0 276 105"
   xml:space="preserve"
   inkscape:version="0.91 r13725"
   sodipodi:docname="logo.svg"
   width="152"
   height="152"><metadata
     id="metadata83"><rdf:RDF><cc:Work
         rdf:about=""><dc:format>image/svg+xml</dc:format><dc:type
           rdf:resource="http://purl.org/dc/dcmitype/StillImage" /><dc:title></dc:title></cc:Work></rdf:RDF></metadata><defs
     id="defs81" /><sodipodi:namedview
     pagecolor="#ffffff"
     bordercolor="#666666"
     borderopacity="1"
     objecttolerance="10"
     gridtolerance="10"
     guidetolerance="10"
     inkscape:pageopacity="0"
     inkscape:pageshadow="2"
     inkscape:window-width="1600"
     inkscape:window-height="876"
     id="namedview79"
     showgrid="false"
     fit-margin-top="0"
     fit-margin-left="0"
     fit-margin-right="0"
     fit-margin-bottom="0"
     inkscape:zoom="5.5752446"
     inkscape:cx="63.730336"
     inkscape:cy="102.87747"
     inkscape:window-x="0"
     inkscape:window-y="24"
     inkscape:window-maximized="1"
     inkscape:current-layer="Слой_1" /><g
     id="g3"
     transform="matrix(13.260304,0,0,13.260304,-2667.3062,-71.183075)"><path
       stroke-miterlimit="10"
       d="m 222,26.3 c 0,-6.1 7.8,-11 17.5,-11"
       id="path5"
       inkscape:connector-curvature="0"
       style="fill:none;stroke:#a5a4a2;stroke-miterlimit:10" /><path
       stroke-miterlimit="10"
       d="m 222,26.3 c -1.1,-6 7.8,-11 17.5,-11"
       id="path7"
       inkscape:connector-curvature="0"
       style="fill:none;stroke:#a5a4a2;stroke-miterlimit:10" /><path
       stroke-miterlimit="10"
       d="m 222,26.3 c -2.1,-5.7 5.8,-12.2 15.3,-13.9"
       id="path9"
       inkscape:connector-curvature="0"
       style="fill:none;stroke:#a5a4a2;stroke-miterlimit:10" /><path
       stroke-miterlimit="10"
       d="M 222,26.3 C 219,21 225.6,13.3 234.7,10"
       id="path11"
       inkscape:connector-curvature="0"
       style="fill:none;stroke:#a5a4a2;stroke-miterlimit:10" /><path
       stroke-miterlimit="10"
       d="M 222,26.3 C 218.1,21.6 223.3,12.9 231.6,8"
       id="path13"
       inkscape:connector-curvature="0"
       style="fill:none;stroke:#a5a4a2;stroke-miterlimit:10" /><path
       stroke-miterlimit="10"
       d="m 222,26.3 c -4.7,-3.9 -1.1,-13.5 6.3,-19.7"
       id="path15"
       inkscape:connector-curvature="0"
       style="fill:none;stroke:#a5a4a2;stroke-miterlimit:10" /><path
       stroke-miterlimit="10"
       d="m 222,26.3 c -5.3,-3 -3.4,-13.1 2.8,-20.5"
       id="path17"
       inkscape:connector-curvature="0"
       style="fill:none;stroke:#a5a4a2;stroke-miterlimit:10" /><path
       stroke-miterlimit="10"
       d="M 222,26.3 C 216.3,24.2 216.4,14 221.2,5.7"
       id="path19"
       inkscape:connector-curvature="0"
       style="fill:none;stroke:#a5a4a2;stroke-miterlimit:10" /><path
       stroke-miterlimit="10"
       d="M 222,26.3 C 216,25.2 214.3,15.2 217.6,6.1"
       id="path21"
       inkscape:connector-curvature="0"
       style="fill:none;stroke:#a5a4a2;stroke-miterlimit:10" /><path
       stroke-miterlimit="10"
       d="m 222,26.3 c -6.1,0 -9.5,-9.6 -7.8,-19.1"
       id="path23"
       inkscape:connector-curvature="0"
       style="fill:none;stroke:#a5a4a2;stroke-miterlimit:10" /><path
       stroke-miterlimit="10"
       d="M 222,26.3 C 216,27.4 211,18.5 211,8.8"
       id="path25"
       inkscape:connector-curvature="0"
       style="fill:none;stroke:#a5a4a2;stroke-miterlimit:10" /><path
       stroke-miterlimit="10"
       d="M 222,26.3 C 216.3,28.4 209.8,20.5 208.1,11"
       id="path27"
       inkscape:connector-curvature="0"
       style="fill:none;stroke:#a5a4a2;stroke-miterlimit:10" /><path
       stroke-miterlimit="10"
       d="m 222,26.3 c -5.3,3 -13,-3.6 -16.3,-12.7"
       id="path29"
       inkscape:connector-curvature="0"
       style="fill:none;stroke:#a5a4a2;stroke-miterlimit:10" /><path
       stroke-miterlimit="10"
       d="M 222,26.3 C 217.3,30.2 208.6,25 203.7,16.7"
       id="path31"
       inkscape:connector-curvature="0"
       style="fill:none;stroke:#a5a4a2;stroke-miterlimit:10" /><path
       stroke-miterlimit="10"
       d="M 222,26.3 C 218.1,31 208.5,27.4 202.3,20"
       id="path33"
       inkscape:connector-curvature="0"
       style="fill:none;stroke:#a5a4a2;stroke-miterlimit:10" /><path
       stroke-miterlimit="10"
       d="m 222,26.3 c -3,5.3 -13.1,3.4 -20.5,-2.8"
       id="path35"
       inkscape:connector-curvature="0"
       style="fill:none;stroke:#a5a4a2;stroke-miterlimit:10" /><path
       stroke-miterlimit="10"
       d="m 222,26.3 c -2.1,5.7 -12.3,5.6 -20.6,0.8"
       id="path37"
       inkscape:connector-curvature="0"
       style="fill:none;stroke:#a5a4a2;stroke-miterlimit:10" /><path
       stroke-miterlimit="10"
       d="m 222,26.3 c -1.1,6 -11.1,7.7 -20.2,4.4"
       id="path39"
       inkscape:connector-curvature="0"
       style="fill:none;stroke:#a5a4a2;stroke-miterlimit:10" /><path
       stroke-miterlimit="10"
       d="m 222,26.3 c 0,6.1 -9.6,9.5 -19.1,7.8"
       id="path41"
       inkscape:connector-curvature="0"
       style="fill:none;stroke:#a5a4a2;stroke-miterlimit:10" /><path
       stroke-miterlimit="10"
       d="m 222,26.3 c 1.1,6 -7.8,11 -17.5,11"
       id="path43"
       inkscape:connector-curvature="0"
       style="fill:none;stroke:#a5a4a2;stroke-miterlimit:10" /><path
       stroke-miterlimit="10"
       d="m 222,26.3 c 2.1,5.7 -5.8,12.2 -15.3,13.9"
       id="path45"
       inkscape:connector-curvature="0"
       style="fill:none;stroke:#a5a4a2;stroke-miterlimit:10" /><path
       stroke-miterlimit="10"
       d="m 222,26.3 c 3,5.3 -3.6,13 -12.7,16.3"
       id="path47"
       inkscape:connector-curvature="0"
       style="fill:none;stroke:#a5a4a2;stroke-miterlimit:10" /><path
       stroke-miterlimit="10"
       d="m 222,26.3 c 3.9,4.7 -1.3,13.4 -9.6,18.3"
       id="path49"
       inkscape:connector-curvature="0"
       style="fill:none;stroke:#a5a4a2;stroke-miterlimit:10" /><path
       stroke-miterlimit="10"
       d="m 222,26.3 c 4.7,3.9 1.1,13.5 -6.3,19.7"
       id="path51"
       inkscape:connector-curvature="0"
       style="fill:none;stroke:#a5a4a2;stroke-miterlimit:10" /><path
       stroke-miterlimit="10"
       d="m 222,26.3 c 5.3,3 3.4,13.1 -2.8,20.5"
       id="path53"
       inkscape:connector-curvature="0"
       style="fill:none;stroke:#a5a4a2;stroke-miterlimit:10" /><path
       stroke-miterlimit="10"
       d="m 222,26.3 c 5.7,2.1 5.6,12.3 0.8,20.6"
       id="path55"
       inkscape:connector-curvature="0"
       style="fill:none;stroke:#a5a4a2;stroke-miterlimit:10" /><path
       stroke-miterlimit="10"
       d="m 222,26.3 c 6,1.1 7.7,11.1 4.4,20.2"
       id="path57"
       inkscape:connector-curvature="0"
       style="fill:none;stroke:#a5a4a2;stroke-miterlimit:10" /><path
       stroke-miterlimit="10"
       d="m 222,26.3 c 6.1,0 9.5,9.6 7.8,19.1"
       id="path59"
       inkscape:connector-curvature="0"
       style="fill:none;stroke:#a5a4a2;stroke-miterlimit:10" /><path
       stroke-miterlimit="10"
       d="m 222,26.3 c 6,-1.1 11,7.8 11,17.5"
       id="path61"
       inkscape:connector-curvature="0"
       style="fill:none;stroke:#a5a4a2;stroke-miterlimit:10" /><path
       stroke-miterlimit="10"
       d="m 222,26.3 c 5.7,-2.1 12.2,5.8 13.9,15.3"
       id="path63"
       inkscape:connector-curvature="0"
       style="fill:none;stroke:#a5a4a2;stroke-miterlimit:10" /><path
       stroke-miterlimit="10"
       d="m 222,26.3 c 5.3,-3 13,3.6 16.3,12.7"
       id="path65"
       inkscape:connector-curvature="0"
       style="fill:none;stroke:#a5a4a2;stroke-miterlimit:10" /><path
       stroke-miterlimit="10"
       d="m 222,26.3 c 4.7,-3.9 13.4,1.3 18.3,9.6"
       id="path67"
       inkscape:connector-curvature="0"
       style="fill:none;stroke:#a5a4a2;stroke-miterlimit:10" /><path
       stroke-miterlimit="10"
       d="m 222,26.3 c 3.9,-4.7 13.5,-1.1 19.7,6.3"
       id="path69"
       inkscape:connector-curvature="0"
       style="fill:none;stroke:#a5a4a2;stroke-miterlimit:10" /><path
       stroke-miterlimit="10"
       d="m 222,26.3 c 3,-5.3 13.1,-3.4 20.5,2.8"
       id="path71"
       inkscape:connector-curvature="0"
       style="fill:none;stroke:#a5a4a2;stroke-miterlimit:10" /><path
       stroke-miterlimit="10"
       d="m 222,26.3 c 2.1,-5.7 12.3,-5.6 20.6,-0.8"
       id="path73"
       inkscape:connector-curvature="0"
       style="fill:none;stroke:#a5a4a2;stroke-miterlimit:10" /><path
       stroke-miterlimit="10"
       d="m 222,26.3 c 1.1,-6 11.1,-7.7 20.2,-4.4"
       id="path75"
       inkscape:connector-curvature="0"
       style="fill:none;stroke:#a5a4a2;stroke-miterlimit:10" /><path
       stroke-miterlimit="10"
       d="m 222,26.3 c 0,-6.1 9.6,-9.5 19.1,-7.8"
       id="path77"
       inkscape:connector-curvature="0"
       style="fill:none;stroke:#a5a4a2;stroke-miterlimit:10" /></g></svg>
