<?xml version="1.0" encoding="utf-8"?>
<!-- Generator: Adobe Illustrator 22.1.0, SVG Export Plug-In . SVG Version: 6.00 Build 0)  -->
<svg version="1.1" id="Слой_1" xmlns="http://www.w3.org/2000/svg" xmlns:xlink="http://www.w3.org/1999/xlink" x="0px" y="0px"
	 viewBox="0 0 141.7 141.7" style="enable-background:new 0 0 141.7 141.7;" xml:space="preserve">
<g>
	<path d="M58.2,132c-1.4-0.8-1.7-2.2-1.7-3.7c0-15.6,0-31.1,0-46.7c0-0.4,0-0.7,0-1.1c0.1-1.1-0.4-1.4-1.4-1.4c-3.7,0-7.4,0-11,0
		c-1,0-2,0-3,0c-1.9-0.1-2.9-1.1-2.9-3.1c0-6.4,0-12.7,0-19.1c0-2.1,1-3,3.1-3c4.6,0,9.2,0,13.8,0c1.1,0,1.4-0.3,1.4-1.4
		c0-5-0.2-10,0.1-15c0.8-13.6,8.8-24.8,23.9-27.1c2.2-0.3,4.3-0.3,6.5-0.3c4.7,0,9.3,0,14,0c2.1,0,3.2,1,3.2,3.1
		c0,5.8,0,11.6,0,17.5c0,2.2-1,3.2-3.3,3.2c-3.6,0-7.1,0-10.7,0c-0.8,0-1.5,0-2.2,0.1c-3.7,0.6-5.4,2.6-5.5,6.7c-0.1,4,0,8-0.1,12
		c0,1,0.5,1,1.3,1c5.4,0,10.8,0,16.3,0c2.6,0,3.5,0.9,3.5,3.6c0,6,0,12,0,17.9c0,2.8-0.9,3.7-3.7,3.7c-5.2,0-10.5,0-15.7,0
		c-1.7,0-1.7,0-1.7,1.7c0,15.9,0,31.7,0,47.6c0,1.4-0.4,2.6-1.5,3.4C73.4,132,65.8,132,58.2,132z"/>
</g>
</svg>
