<?xml version="1.0" encoding="utf-8"?>
<!-- Generator: Adobe Illustrator 24.0.1, SVG Export Plug-In . SVG Version: 6.00 Build 0)  -->
<svg version="1.1" id="Слой_1" xmlns="http://www.w3.org/2000/svg" xmlns:xlink="http://www.w3.org/1999/xlink" x="0px" y="0px"
	 viewBox="0 0 141.7 141.7" style="enable-background:new 0 0 141.7 141.7;" xml:space="preserve">
<g>
	<path d="M1.7,38.7c1-1.5,2.6-1.8,4.3-1.8c4.5,0,9,0,13.5-0.1c1.6,0,3.1-0.1,4.7-0.1c3.8,0,5.7,1.1,7.2,4.5
		c3.1,7.1,6.9,13.8,10.9,20.4c1.6,2.7,3.5,5.3,6.2,7.2c0.7,0.5,1.4,1,2.2,1.2c1.4,0.4,2.5-0.1,3.3-1.3c1-1.6,1.3-3.5,1.6-5.4
		c0.9-6.1,0.9-12.2-0.4-18.3c-0.7-3.2-2.7-5.1-6.1-5.7c-1.9-0.4-2-0.9-0.7-2.3c1.7-1.8,3.8-2.6,6.2-2.9c7.7-0.9,15.3-1.1,23,0.1
		c3.3,0.5,4.7,2.1,5.2,5.1c0.2,1.2,0.3,2.5,0.2,3.7c-0.1,5.9-0.4,11.9-0.5,17.7c-0.1,1.6,0.1,3.2,0.3,4.7c0.1,1,0.5,2,1.1,2.9
		c1.1,1.5,2.6,1.8,4.1,0.6c2.7-2,4.7-4.5,6.6-7.1c4.8-6.7,8.9-13.8,12-21.4c1.3-3.2,2.2-3.7,5.9-3.7c6.5,0,13-0.1,19.6-0.1
		c1.6,0,3.1-0.3,4.7,0.1c2.8,0.7,3.8,2,3.1,4.7c-0.4,1.9-1.3,3.6-2.3,5.3c-3.7,6.4-8.5,12.1-13.2,17.9c-1.9,2.4-3.8,4.7-5.5,7.3
		c-2,3-1.9,5.3,0.8,7.8c3.2,3.1,6.5,6,9.7,9c3.5,3.4,6.8,6.9,9.3,10.9c0.7,1.2,1.1,2.3,1.2,3.6c0.2,1.8-0.7,3.2-2.7,4
		c-1.1,0.4-2.2,0.5-3.4,0.6c-5.8,0.1-11.6,0-17.4,0.3c-5.5,0.3-9.8-1.7-13.5-5.1c-2.3-2.1-4.4-4.4-6.4-6.7c-1.5-1.6-3-3.2-4.9-4.5
		c-2.5-1.7-4.4-1.4-6.2,0.9c-1.7,2.1-2.2,4.7-2.5,7.2c-0.1,1,0,2-0.1,2.9c-0.2,3.2-1.5,4.8-4.7,4.9c-7.4,0.3-14.8,0.8-22-1.8
		c-10.1-3.7-18.5-9.5-25.3-17.5C18.6,74,9.3,58,1.7,41.1C1.7,40.2,1.7,39.5,1.7,38.7z"/>
</g>
</svg>
