<?xml version="1.0" encoding="utf-8"?>
<!-- Generator: Adobe Illustrator 22.1.0, SVG Export Plug-In . SVG Version: 6.00 Build 0)  -->
<svg version="1.1" id="Слой_1" xmlns="http://www.w3.org/2000/svg" xmlns:xlink="http://www.w3.org/1999/xlink" x="0px" y="0px"
	 viewBox="0 0 1680.1 403" style="enable-background:new 0 0 1680.1 403;" xml:space="preserve">
<style type="text/css">
	.st0{fill:#FFFFFF;stroke:#1E0E00;stroke-width:2;stroke-miterlimit:10;}
	.st1{fill:#FFFFFF;stroke:#201600;stroke-width:2;stroke-miterlimit:10;}
	.st2{fill:none;stroke:#201600;stroke-width:2;stroke-miterlimit:10;}
	.st3{fill:none;stroke:#1E0E00;stroke-width:2;stroke-miterlimit:10;}
	.st4{fill:none;stroke:#1E0E00;stroke-width:2;stroke-linejoin:round;stroke-miterlimit:10;}
	.st5{fill:none;stroke:#000000;stroke-width:2;stroke-miterlimit:10;}
	.st6{fill:#FFFFFF;stroke:#000000;stroke-width:2;stroke-miterlimit:10;}
	.st7{fill:#FFFFFF;stroke:#201600;stroke-width:2;stroke-linecap:round;stroke-linejoin:round;stroke-miterlimit:10;}
	.st8{fill:#FFFFFF;}
</style>
<rect x="820.4" y="118.6" class="st0" width="21" height="21"/>
<rect x="857.1" y="126.5" transform="matrix(0.9178 0.3972 -0.3972 0.9178 125.7542 -333.3052)" class="st0" width="21" height="21"/>
<g>
	<circle class="st3" cx="1124.6" cy="323.1" r="42.9"/>
	<circle class="st3" cx="1124.6" cy="323.1" r="25.3"/>
	<circle class="st3" cx="1124.6" cy="323.1" r="11.3"/>
	<path class="st3" d="M1073.9,323.1c0-28,22.7-50.7,50.7-50.7c28,0,50.7,22.7,50.7,50.7"/>
</g>
<g>
	<circle class="st3" cx="1237.6" cy="323.1" r="42.9"/>
	<circle class="st3" cx="1237.6" cy="323.1" r="25.3"/>
	<circle class="st3" cx="1237.6" cy="323.1" r="11.3"/>
	<path class="st3" d="M1186.8,323.1c0-28,22.7-50.7,50.7-50.7c28,0,50.7,22.7,50.7,50.7"/>
</g>
<g>
	<circle class="st3" cx="1482.6" cy="323.1" r="42.9"/>
	<circle class="st3" cx="1482.6" cy="323.1" r="25.3"/>
	<circle class="st3" cx="1482.6" cy="323.1" r="11.3"/>
	<path class="st3" d="M1287,311.8h125.2v31.5h15.2l4.4-20.2c0-27.8,22.9-50.7,50.7-50.7c27.8,0,50.7,22.9,50.7,50.7
		c8.6,0.1,17.2,0.2,25.9,0.3l12.1-8.3v-11.9"/>
</g>
<line class="st3" x1="1145.3" y1="276.8" x2="1216.7" y2="276.8"/>
<line class="st3" x1="1174.1" y1="311.8" x2="1188.1" y2="311.8"/>
<polyline class="st3" points="1258.2,276.8 1423.9,276.8 1449.4,252 1496,252 1521.1,277.1 1571.4,277.1 1571.4,283.8 "/>
<path class="st3" d="M1570.4,303.5H1558c-5.4,0-9.9-4.4-9.9-9.9c0-5.4,4.4-9.9,9.9-9.9h12.4c5.4,0,9.9,4.4,9.9,9.9
	C1580.3,299,1575.8,303.5,1570.4,303.5z"/>
<path class="st4" d="M1104,276.8c-26.4,0-52.8,0-79.1,0c5.5,13.5,10.9,27,16.4,40.6"/>
<polyline class="st3" points="1449.4,252 1449.4,134.8 1533.6,141.8 1571.4,216 1571.4,233.3 "/>
<line class="st3" x1="1571.4" y1="277.1" x2="1571.4" y2="264.9"/>
<path class="st3" d="M1577,264.9h-12.1c-1.8,0-3.2-1.5-3.2-3.2v-25.6c0-1.8,1.5-3.2,3.2-3.2h12.1c1.8,0,3.2,1.5,3.2,3.2v25.6
	C1580.3,263.5,1578.8,264.9,1577,264.9z"/>
<polyline class="st3" points="1475.3,252 1475.3,146.2 1529.7,149.8 1552.5,209.7 1552.5,277.1 "/>
<polygon class="st3" points="1484.9,155.6 1486.8,191.5 1523.9,216.9 1540.5,216.9 1540.5,207.1 1522.4,156.8 "/>
<line class="st4" x1="1075.2" y1="311.8" x2="1039" y2="311.8"/>
<rect x="1024.9" y="84.1" class="st3" width="414.9" height="173.7"/>
<line class="st3" x1="1034.6" y1="257.8" x2="1034.6" y2="276.8"/>
<g>
	<circle class="st3" cx="181.3" cy="323" r="42.9"/>
	<circle class="st3" cx="181.3" cy="323" r="25.3"/>
	<circle class="st3" cx="181.3" cy="323" r="11.3"/>
	<path class="st3" d="M130.6,323c0-28,22.7-50.7,50.7-50.7s50.7,22.7,50.7,50.7"/>
</g>
<g>
	<circle class="st3" cx="294.3" cy="323" r="42.9"/>
	<circle class="st3" cx="294.3" cy="323" r="25.3"/>
	<circle class="st3" cx="294.3" cy="323" r="11.3"/>
	<path class="st3" d="M243.5,323c0-28,22.7-50.7,50.7-50.7c28,0,50.7,22.7,50.7,50.7"/>
</g>
<g>
	<circle class="st3" cx="539.3" cy="323" r="42.9"/>
	<circle class="st3" cx="539.3" cy="323" r="25.3"/>
	<circle class="st3" cx="539.3" cy="323" r="11.3"/>
	<path class="st3" d="M343.7,311.7h125.2v31.5h15.2l4.4-20.2c0-27.8,22.9-50.7,50.7-50.7c27.8,0,50.7,22.9,50.7,50.7
		c8.6,0.1,17.2,0.2,25.9,0.3l12.1-8.3v-11.9"/>
</g>
<line class="st3" x1="202" y1="276.7" x2="273.3" y2="276.7"/>
<line class="st3" x1="230.8" y1="311.7" x2="244.8" y2="311.7"/>
<polyline class="st3" points="314.9,276.7 480.6,276.7 506.1,252 552.7,252 577.8,277 628.1,277 628.1,283.7 "/>
<path class="st3" d="M627.1,303.4h-12.4c-5.4,0-9.9-4.4-9.9-9.9c0-5.4,4.4-9.9,9.9-9.9h12.4c5.4,0,9.9,4.4,9.9,9.9
	C637,298.9,632.5,303.4,627.1,303.4z"/>
<path class="st4" d="M160.7,276.7c-26.4,0-52.8,0-79.1,0c5.5,13.5,10.9,27,16.4,40.6"/>
<polyline class="st3" points="506.1,252 506.1,134.7 590.3,141.8 628.1,216 628.1,233.2 "/>
<line class="st3" x1="628.1" y1="277" x2="628.1" y2="264.9"/>
<path class="st3" d="M633.7,264.9h-12.1c-1.8,0-3.2-1.5-3.2-3.2V236c0-1.8,1.5-3.2,3.2-3.2h12.1c1.8,0,3.2,1.5,3.2,3.2l0,25.6
	C637,263.4,635.5,264.9,633.7,264.9z"/>
<polyline class="st3" points="532,252 532,146.1 586.3,149.8 609.2,209.6 609.2,277 "/>
<polygon class="st3" points="541.6,155.5 543.5,191.4 580.6,216.9 597.2,216.9 597.2,207 579.1,156.7 "/>
<line class="st4" x1="131.9" y1="311.7" x2="95.7" y2="311.7"/>
<rect x="81.6" y="84" class="st3" width="414.9" height="173.7"/>
<line class="st3" x1="91.2" y1="257.7" x2="91.2" y2="276.7"/>
<circle class="st0" cx="830.9" cy="226.1" r="96.9"/>
<rect x="815.6" y="110.8" class="st0" width="30.4" height="7.7"/>
<line class="st3" x1="759.4" y1="291.6" x2="902.4" y2="160.7"/>
<line class="st3" x1="766.6" y1="298.7" x2="895.2" y2="153.5"/>
<line class="st3" x1="774.6" y1="305" x2="887.2" y2="147.2"/>
<line class="st3" x1="783.1" y1="310.5" x2="878.7" y2="141.8"/>
<line class="st3" x1="792.2" y1="315" x2="869.6" y2="137.2"/>
<line class="st3" x1="801.7" y1="318.6" x2="860.1" y2="133.7"/>
<line class="st3" x1="811.5" y1="321.1" x2="850.3" y2="131.1"/>
<line class="st3" x1="821.6" y1="322.6" x2="840.2" y2="129.6"/>
<line class="st3" x1="831.7" y1="323.1" x2="830.1" y2="129.2"/>
<line class="st3" x1="841.8" y1="322.4" x2="820" y2="129.8"/>
<line class="st3" x1="851.8" y1="320.8" x2="810" y2="131.5"/>
<line class="st3" x1="861.6" y1="318.1" x2="800.2" y2="134.2"/>
<line class="st3" x1="871.1" y1="314.4" x2="790.7" y2="137.9"/>
<line class="st3" x1="880.1" y1="309.7" x2="781.7" y2="142.6"/>
<line class="st3" x1="888.5" y1="304.1" x2="773.3" y2="148.2"/>
<line class="st3" x1="896.4" y1="297.6" x2="765.4" y2="154.6"/>
<line class="st3" x1="903.5" y1="290.4" x2="758.3" y2="161.8"/>
<line class="st3" x1="909.8" y1="282.5" x2="752" y2="169.8"/>
<line class="st3" x1="915.2" y1="273.9" x2="746.5" y2="178.3"/>
<line class="st3" x1="919.8" y1="264.8" x2="742" y2="187.4"/>
<line class="st3" x1="923.3" y1="255.3" x2="738.5" y2="196.9"/>
<line class="st3" x1="925.9" y1="245.5" x2="735.9" y2="206.7"/>
<line class="st3" x1="927.4" y1="235.5" x2="734.4" y2="216.8"/>
<line class="st3" x1="927.8" y1="225.3" x2="734" y2="226.9"/>
<line class="st3" x1="927.2" y1="215.2" x2="734.6" y2="237"/>
<line class="st3" x1="925.6" y1="205.2" x2="736.2" y2="247.1"/>
<line class="st3" x1="922.8" y1="195.4" x2="738.9" y2="256.8"/>
<line class="st3" x1="919.1" y1="186" x2="742.7" y2="266.3"/>
<line class="st3" x1="914.5" y1="177" x2="747.3" y2="275.3"/>
<line class="st3" x1="908.9" y1="168.5" x2="752.9" y2="283.7"/>
<circle class="st8" cx="830.9" cy="226.1" r="86.5"/>
<line class="st5" x1="830.9" y1="250.2" x2="830.9" y2="146.6"/>
<circle class="st6" cx="830.7" cy="223.3" r="5.7"/>
</svg>
