<?xml version="1.0" encoding="utf-8"?>
<!-- Generator: Adobe Illustrator 22.1.0, SVG Export Plug-In . SVG Version: 6.00 Build 0)  -->
<svg version="1.1" id="Слой_1" xmlns="http://www.w3.org/2000/svg" xmlns:xlink="http://www.w3.org/1999/xlink" x="0px" y="0px"
	 viewBox="0 0 1667.8 403" style="enable-background:new 0 0 1667.8 403;" xml:space="preserve">
<style type="text/css">
	.st0{fill:#FFFFFF;stroke:#1E0E00;stroke-width:2;stroke-miterlimit:10;}
	.st1{fill:#FFFFFF;stroke:#201600;stroke-width:2;stroke-miterlimit:10;}
	.st2{fill:none;stroke:#201600;stroke-width:2;stroke-miterlimit:10;}
	.st3{fill:none;stroke:#1E0E00;stroke-width:2;stroke-miterlimit:10;}
	.st4{fill:none;stroke:#1E0E00;stroke-width:2;stroke-linejoin:round;stroke-miterlimit:10;}
	.st5{fill:none;stroke:#000000;stroke-width:2;stroke-miterlimit:10;}
	.st6{fill:#FFFFFF;stroke:#000000;stroke-width:2;stroke-miterlimit:10;}
	.st7{fill:#FFFFFF;stroke:#201600;stroke-width:2;stroke-linecap:round;stroke-linejoin:round;stroke-miterlimit:10;}
	.st8{fill:#FFFFFF;}
</style>
<rect x="99.7" y="49.9" class="st1" width="1467.7" height="51.1"/>
<line class="st2" x1="107.7" y1="49.9" x2="107.7" y2="101"/>
<line class="st2" x1="116" y1="49.9" x2="116" y2="101"/>
<line class="st2" x1="124.3" y1="49.9" x2="124.3" y2="101"/>
<line class="st2" x1="132.6" y1="49.9" x2="132.6" y2="101"/>
<line class="st2" x1="140.9" y1="49.9" x2="140.9" y2="101"/>
<line class="st2" x1="149.2" y1="49.9" x2="149.2" y2="101"/>
<line class="st2" x1="157.5" y1="49.9" x2="157.5" y2="101"/>
<line class="st2" x1="165.8" y1="49.9" x2="165.8" y2="101"/>
<line class="st2" x1="174.1" y1="49.9" x2="174.1" y2="101"/>
<line class="st2" x1="182.3" y1="49.9" x2="182.3" y2="101"/>
<line class="st2" x1="190.6" y1="49.9" x2="190.6" y2="101"/>
<line class="st2" x1="198.9" y1="49.9" x2="198.9" y2="101"/>
<line class="st2" x1="207.2" y1="49.9" x2="207.2" y2="101"/>
<line class="st2" x1="215.5" y1="49.9" x2="215.5" y2="101"/>
<line class="st2" x1="223.8" y1="49.9" x2="223.8" y2="101"/>
<line class="st2" x1="232.1" y1="49.9" x2="232.1" y2="101"/>
<line class="st2" x1="240.4" y1="49.9" x2="240.4" y2="101"/>
<line class="st2" x1="248.7" y1="49.9" x2="248.7" y2="101"/>
<line class="st2" x1="257" y1="49.9" x2="257" y2="101"/>
<line class="st2" x1="265.3" y1="49.9" x2="265.3" y2="101"/>
<line class="st2" x1="273.6" y1="49.9" x2="273.6" y2="101"/>
<line class="st2" x1="281.9" y1="49.9" x2="281.9" y2="101"/>
<line class="st2" x1="290.2" y1="49.9" x2="290.2" y2="101"/>
<line class="st2" x1="298.5" y1="49.9" x2="298.5" y2="101"/>
<line class="st2" x1="306.8" y1="49.9" x2="306.8" y2="101"/>
<line class="st2" x1="315.1" y1="49.9" x2="315.1" y2="101"/>
<line class="st2" x1="323.4" y1="49.9" x2="323.4" y2="101"/>
<line class="st2" x1="331.6" y1="49.9" x2="331.6" y2="101"/>
<line class="st2" x1="339.9" y1="49.9" x2="339.9" y2="101"/>
<line class="st2" x1="348.2" y1="49.9" x2="348.2" y2="101"/>
<line class="st2" x1="356.5" y1="49.9" x2="356.5" y2="101"/>
<line class="st2" x1="364.8" y1="49.9" x2="364.8" y2="101"/>
<line class="st2" x1="373.1" y1="49.9" x2="373.1" y2="101"/>
<line class="st2" x1="381.4" y1="49.9" x2="381.4" y2="101"/>
<line class="st2" x1="389.7" y1="49.9" x2="389.7" y2="101"/>
<line class="st2" x1="398" y1="49.9" x2="398" y2="101"/>
<line class="st2" x1="406.3" y1="49.9" x2="406.3" y2="101"/>
<line class="st2" x1="414.6" y1="49.9" x2="414.6" y2="101"/>
<line class="st2" x1="422.9" y1="49.9" x2="422.9" y2="101"/>
<line class="st2" x1="431.2" y1="49.9" x2="431.2" y2="101"/>
<line class="st2" x1="439.5" y1="49.9" x2="439.5" y2="101"/>
<line class="st2" x1="447.8" y1="49.9" x2="447.8" y2="101"/>
<line class="st2" x1="456.1" y1="49.9" x2="456.1" y2="101"/>
<line class="st2" x1="464.4" y1="49.9" x2="464.4" y2="101"/>
<line class="st2" x1="472.7" y1="49.9" x2="472.7" y2="101"/>
<line class="st2" x1="480.9" y1="49.9" x2="480.9" y2="101"/>
<line class="st2" x1="489.2" y1="49.9" x2="489.2" y2="101"/>
<line class="st2" x1="497.5" y1="49.9" x2="497.5" y2="101"/>
<line class="st2" x1="505.8" y1="49.9" x2="505.8" y2="101"/>
<line class="st2" x1="514.1" y1="49.9" x2="514.1" y2="101"/>
<line class="st2" x1="522.4" y1="49.9" x2="522.4" y2="101"/>
<line class="st2" x1="530.7" y1="49.9" x2="530.7" y2="101"/>
<line class="st2" x1="539" y1="49.9" x2="539" y2="101"/>
<line class="st2" x1="547.3" y1="49.9" x2="547.3" y2="101"/>
<line class="st2" x1="555.6" y1="49.9" x2="555.6" y2="101"/>
<line class="st2" x1="563.9" y1="49.9" x2="563.9" y2="101"/>
<line class="st2" x1="572.2" y1="49.9" x2="572.2" y2="101"/>
<line class="st2" x1="580.5" y1="49.9" x2="580.5" y2="101"/>
<line class="st2" x1="588.8" y1="49.9" x2="588.8" y2="101"/>
<line class="st2" x1="597.1" y1="49.9" x2="597.1" y2="101"/>
<line class="st2" x1="605.4" y1="49.9" x2="605.4" y2="101"/>
<line class="st2" x1="613.7" y1="49.9" x2="613.7" y2="101"/>
<line class="st2" x1="621.9" y1="49.9" x2="621.9" y2="101"/>
<line class="st2" x1="630.2" y1="49.9" x2="630.2" y2="101"/>
<line class="st2" x1="638.5" y1="49.9" x2="638.5" y2="101"/>
<line class="st2" x1="646.8" y1="49.9" x2="646.8" y2="101"/>
<line class="st2" x1="655.1" y1="49.9" x2="655.1" y2="101"/>
<line class="st2" x1="663.4" y1="49.9" x2="663.4" y2="101"/>
<line class="st2" x1="671.7" y1="49.9" x2="671.7" y2="101"/>
<line class="st2" x1="680" y1="49.9" x2="680" y2="101"/>
<line class="st2" x1="688.3" y1="49.9" x2="688.3" y2="101"/>
<line class="st2" x1="696.6" y1="49.9" x2="696.6" y2="101"/>
<line class="st2" x1="704.9" y1="49.9" x2="704.9" y2="101"/>
<line class="st2" x1="713.2" y1="49.9" x2="713.2" y2="101"/>
<line class="st2" x1="721.5" y1="49.9" x2="721.5" y2="101"/>
<line class="st2" x1="729.8" y1="49.9" x2="729.8" y2="101"/>
<line class="st2" x1="738.1" y1="49.9" x2="738.1" y2="101"/>
<line class="st2" x1="746.4" y1="49.9" x2="746.4" y2="101"/>
<line class="st2" x1="754.7" y1="49.9" x2="754.7" y2="101"/>
<line class="st2" x1="763.5" y1="49.9" x2="763.5" y2="101"/>
<line class="st2" x1="771.8" y1="49.9" x2="771.8" y2="101"/>
<line class="st2" x1="780.1" y1="49.9" x2="780.1" y2="101"/>
<line class="st2" x1="788.4" y1="49.9" x2="788.4" y2="101"/>
<line class="st2" x1="796.7" y1="49.9" x2="796.7" y2="101"/>
<line class="st2" x1="805" y1="49.9" x2="805" y2="101"/>
<line class="st2" x1="813.3" y1="49.9" x2="813.3" y2="101"/>
<line class="st2" x1="821.6" y1="49.9" x2="821.6" y2="101"/>
<line class="st2" x1="829.9" y1="49.9" x2="829.9" y2="101"/>
<line class="st2" x1="838.2" y1="49.9" x2="838.2" y2="101"/>
<line class="st2" x1="846.5" y1="49.9" x2="846.5" y2="101"/>
<line class="st2" x1="854.8" y1="49.9" x2="854.8" y2="101"/>
<line class="st2" x1="863.1" y1="49.9" x2="863.1" y2="101"/>
<line class="st2" x1="871.3" y1="49.9" x2="871.3" y2="101"/>
<line class="st2" x1="879.6" y1="49.9" x2="879.6" y2="101"/>
<line class="st2" x1="887.9" y1="49.9" x2="887.9" y2="101"/>
<line class="st2" x1="896.2" y1="49.9" x2="896.2" y2="101"/>
<line class="st2" x1="904.5" y1="49.9" x2="904.5" y2="101"/>
<line class="st2" x1="912.8" y1="49.9" x2="912.8" y2="101"/>
<line class="st2" x1="921.1" y1="49.9" x2="921.1" y2="101"/>
<line class="st2" x1="929.4" y1="49.9" x2="929.4" y2="101"/>
<line class="st2" x1="937.7" y1="49.9" x2="937.7" y2="101"/>
<line class="st2" x1="946" y1="49.9" x2="946" y2="101"/>
<line class="st2" x1="954.3" y1="49.9" x2="954.3" y2="101"/>
<line class="st2" x1="962.6" y1="49.9" x2="962.6" y2="101"/>
<line class="st2" x1="970.9" y1="49.9" x2="970.9" y2="101"/>
<line class="st2" x1="979.2" y1="49.9" x2="979.2" y2="101"/>
<line class="st2" x1="987.5" y1="49.9" x2="987.5" y2="101"/>
<line class="st2" x1="995.8" y1="49.9" x2="995.8" y2="101"/>
<line class="st2" x1="1004.1" y1="49.9" x2="1004.1" y2="101"/>
<line class="st2" x1="1012.3" y1="49.9" x2="1012.3" y2="101"/>
<line class="st2" x1="1020.6" y1="49.9" x2="1020.6" y2="101"/>
<line class="st2" x1="1028.9" y1="49.9" x2="1028.9" y2="101"/>
<line class="st2" x1="1037.2" y1="49.9" x2="1037.2" y2="101"/>
<line class="st2" x1="1045.5" y1="49.9" x2="1045.5" y2="101"/>
<line class="st2" x1="1053.8" y1="49.9" x2="1053.8" y2="101"/>
<line class="st2" x1="1062.1" y1="49.9" x2="1062.1" y2="101"/>
<line class="st2" x1="1070.4" y1="49.9" x2="1070.4" y2="101"/>
<line class="st2" x1="1078.7" y1="49.9" x2="1078.7" y2="101"/>
<line class="st2" x1="1087" y1="49.9" x2="1087" y2="101"/>
<line class="st2" x1="1095.3" y1="49.9" x2="1095.3" y2="101"/>
<line class="st2" x1="1103.6" y1="49.9" x2="1103.6" y2="101"/>
<line class="st2" x1="1111.9" y1="49.9" x2="1111.9" y2="101"/>
<line class="st2" x1="1120.2" y1="49.9" x2="1120.2" y2="101"/>
<line class="st2" x1="1128.5" y1="49.9" x2="1128.5" y2="101"/>
<line class="st2" x1="1136.8" y1="49.9" x2="1136.8" y2="101"/>
<line class="st2" x1="1145.1" y1="49.9" x2="1145.1" y2="101"/>
<line class="st2" x1="1153.4" y1="49.9" x2="1153.4" y2="101"/>
<line class="st2" x1="1161.6" y1="49.9" x2="1161.6" y2="101"/>
<line class="st2" x1="1169.9" y1="49.9" x2="1169.9" y2="101"/>
<line class="st2" x1="1178.2" y1="49.9" x2="1178.2" y2="101"/>
<line class="st2" x1="1186.5" y1="49.9" x2="1186.5" y2="101"/>
<line class="st2" x1="1194.8" y1="49.9" x2="1194.8" y2="101"/>
<line class="st2" x1="1203.1" y1="49.9" x2="1203.1" y2="101"/>
<line class="st2" x1="1211.4" y1="49.9" x2="1211.4" y2="101"/>
<line class="st2" x1="1219.7" y1="49.9" x2="1219.7" y2="101"/>
<line class="st2" x1="1228" y1="49.9" x2="1228" y2="101"/>
<line class="st2" x1="1236.3" y1="49.9" x2="1236.3" y2="101"/>
<line class="st2" x1="1244.6" y1="49.9" x2="1244.6" y2="101"/>
<line class="st2" x1="1252.9" y1="49.9" x2="1252.9" y2="101"/>
<line class="st2" x1="1261.2" y1="49.9" x2="1261.2" y2="101"/>
<line class="st2" x1="1269.5" y1="49.9" x2="1269.5" y2="101"/>
<line class="st2" x1="1277.8" y1="49.9" x2="1277.8" y2="101"/>
<line class="st2" x1="1286.1" y1="49.9" x2="1286.1" y2="101"/>
<line class="st2" x1="1294.4" y1="49.9" x2="1294.4" y2="101"/>
<line class="st2" x1="1302.7" y1="49.9" x2="1302.7" y2="101"/>
<line class="st2" x1="1310.9" y1="49.9" x2="1310.9" y2="101"/>
<line class="st2" x1="1319.2" y1="49.9" x2="1319.2" y2="101"/>
<line class="st2" x1="1327.5" y1="49.9" x2="1327.5" y2="101"/>
<line class="st2" x1="1335.8" y1="49.9" x2="1335.8" y2="101"/>
<line class="st2" x1="1344.1" y1="49.9" x2="1344.1" y2="101"/>
<line class="st2" x1="1352.4" y1="49.9" x2="1352.4" y2="101"/>
<line class="st2" x1="1360.7" y1="49.9" x2="1360.7" y2="101"/>
<line class="st2" x1="1369" y1="49.9" x2="1369" y2="101"/>
<line class="st2" x1="1377.3" y1="49.9" x2="1377.3" y2="101"/>
<line class="st2" x1="1385.6" y1="49.9" x2="1385.6" y2="101"/>
<line class="st2" x1="1393.9" y1="49.9" x2="1393.9" y2="101"/>
<line class="st2" x1="1402.2" y1="49.9" x2="1402.2" y2="101"/>
<line class="st2" x1="1410.5" y1="49.9" x2="1410.5" y2="101"/>
<line class="st2" x1="1418.9" y1="49.9" x2="1418.9" y2="101"/>
<line class="st2" x1="1427.1" y1="49.9" x2="1427.1" y2="101"/>
<line class="st2" x1="1435.4" y1="49.9" x2="1435.4" y2="101"/>
<line class="st2" x1="1443.7" y1="49.9" x2="1443.7" y2="101"/>
<line class="st2" x1="1452" y1="49.9" x2="1452" y2="101"/>
<line class="st2" x1="1460.3" y1="49.9" x2="1460.3" y2="101"/>
<line class="st2" x1="1468.6" y1="49.9" x2="1468.6" y2="101"/>
<line class="st2" x1="1476.9" y1="49.9" x2="1476.9" y2="101"/>
<line class="st2" x1="1485.2" y1="49.9" x2="1485.2" y2="101"/>
<line class="st2" x1="1493.5" y1="49.9" x2="1493.5" y2="101"/>
<line class="st2" x1="1501.8" y1="49.9" x2="1501.8" y2="101"/>
<line class="st2" x1="1510.1" y1="49.9" x2="1510.1" y2="101"/>
<line class="st2" x1="1518.4" y1="49.9" x2="1518.4" y2="101"/>
<line class="st2" x1="1526.7" y1="49.9" x2="1526.7" y2="101"/>
<line class="st2" x1="1535" y1="49.9" x2="1535" y2="101"/>
<line class="st2" x1="1543.3" y1="49.9" x2="1543.3" y2="101"/>
<line class="st2" x1="1551.6" y1="49.9" x2="1551.6" y2="101"/>
<line class="st2" x1="1559.9" y1="49.9" x2="1559.9" y2="101"/>
<rect x="99.7" y="101" class="st1" width="1467.7" height="13.4"/>
<g>
	<line class="st2" x1="132.6" y1="274.9" x2="132.6" y2="342.6"/>
	<line class="st2" x1="140.9" y1="274.9" x2="140.9" y2="342.6"/>
	<line class="st2" x1="149.2" y1="274.9" x2="149.2" y2="342.6"/>
	<line class="st2" x1="157.5" y1="274.9" x2="157.5" y2="342.6"/>
	<line class="st2" x1="165.8" y1="274.9" x2="165.8" y2="342.6"/>
	<line class="st2" x1="174.1" y1="274.9" x2="174.1" y2="342.6"/>
	<line class="st2" x1="182.3" y1="274.9" x2="182.3" y2="342.6"/>
	<line class="st2" x1="190.5" y1="274.9" x2="190.5" y2="342.6"/>
	<line class="st2" x1="198.7" y1="274.9" x2="198.7" y2="342.6"/>
	<rect x="124.3" y="266.8" class="st2" width="82.5" height="83.9"/>
	<line class="st2" x1="124.3" y1="274.9" x2="206.8" y2="274.9"/>
	<line class="st2" x1="124.3" y1="342.6" x2="206.8" y2="342.6"/>
	<rect x="124.3" y="304.5" class="st1" width="82.5" height="8.4"/>
</g>
<g>
	<line class="st2" x1="1228.2" y1="274.9" x2="1228.2" y2="342.6"/>
	<line class="st2" x1="1236.5" y1="274.9" x2="1236.5" y2="342.6"/>
	<line class="st2" x1="1244.8" y1="274.9" x2="1244.8" y2="342.6"/>
	<line class="st2" x1="1253.1" y1="274.9" x2="1253.1" y2="342.6"/>
	<line class="st2" x1="1261.4" y1="274.9" x2="1261.4" y2="342.6"/>
	<line class="st2" x1="1269.7" y1="274.9" x2="1269.7" y2="342.6"/>
	<line class="st2" x1="1278" y1="274.9" x2="1278" y2="342.6"/>
	<line class="st2" x1="1286.2" y1="274.9" x2="1286.2" y2="342.6"/>
	<line class="st2" x1="1294.3" y1="274.9" x2="1294.3" y2="342.6"/>
	<rect x="1219.9" y="266.8" class="st2" width="82.5" height="83.9"/>
	<line class="st2" x1="1219.9" y1="274.9" x2="1302.4" y2="274.9"/>
	<line class="st2" x1="1219.9" y1="342.6" x2="1302.4" y2="342.6"/>
	<rect x="1219.9" y="304.5" class="st1" width="82.5" height="8.4"/>
</g>
<g>
	<line class="st2" x1="1310.3" y1="274.9" x2="1310.3" y2="342.6"/>
	<line class="st2" x1="1318.6" y1="274.9" x2="1318.6" y2="342.6"/>
	<line class="st2" x1="1326.9" y1="274.9" x2="1326.9" y2="342.6"/>
	<line class="st2" x1="1335.2" y1="274.9" x2="1335.2" y2="342.6"/>
	<line class="st2" x1="1343.5" y1="274.9" x2="1343.5" y2="342.6"/>
	<line class="st2" x1="1351.8" y1="274.9" x2="1351.8" y2="342.6"/>
	<line class="st2" x1="1360" y1="274.9" x2="1360" y2="342.6"/>
	<line class="st2" x1="1368.2" y1="274.9" x2="1368.2" y2="342.6"/>
	<line class="st2" x1="1376.4" y1="274.9" x2="1376.4" y2="342.6"/>
	<rect x="1302" y="266.8" class="st2" width="82.5" height="83.9"/>
	<line class="st2" x1="1302" y1="274.9" x2="1384.5" y2="274.9"/>
	<line class="st2" x1="1302" y1="342.6" x2="1384.5" y2="342.6"/>
	<rect x="1302" y="304.5" class="st1" width="82.5" height="8.4"/>
</g>
<g>
	<line class="st2" x1="298.7" y1="274.9" x2="298.7" y2="342.6"/>
	<line class="st2" x1="307" y1="274.9" x2="307" y2="342.6"/>
	<line class="st2" x1="315.3" y1="274.9" x2="315.3" y2="342.6"/>
	<line class="st2" x1="323.6" y1="274.9" x2="323.6" y2="342.6"/>
	<line class="st2" x1="331.9" y1="274.9" x2="331.9" y2="342.6"/>
	<line class="st2" x1="340.2" y1="274.9" x2="340.2" y2="342.6"/>
	<line class="st2" x1="348.5" y1="274.9" x2="348.5" y2="342.6"/>
	<line class="st2" x1="356.6" y1="274.9" x2="356.6" y2="342.6"/>
	<line class="st2" x1="364.8" y1="274.9" x2="364.8" y2="342.6"/>
	<rect x="290.4" y="266.8" class="st2" width="82.5" height="83.9"/>
	<line class="st2" x1="290.4" y1="274.9" x2="372.9" y2="274.9"/>
	<line class="st2" x1="290.4" y1="342.6" x2="372.9" y2="342.6"/>
	<rect x="290.4" y="304.5" class="st1" width="82.5" height="8.4"/>
</g>
<g>
	<line class="st2" x1="381.6" y1="274.9" x2="381.6" y2="342.6"/>
	<line class="st2" x1="389.9" y1="274.9" x2="389.9" y2="342.6"/>
	<line class="st2" x1="398.2" y1="274.9" x2="398.2" y2="342.6"/>
	<line class="st2" x1="406.5" y1="274.9" x2="406.5" y2="342.6"/>
	<line class="st2" x1="414.8" y1="274.9" x2="414.8" y2="342.6"/>
	<line class="st2" x1="423.1" y1="274.9" x2="423.1" y2="342.6"/>
	<line class="st2" x1="431.4" y1="274.9" x2="431.4" y2="342.6"/>
	<line class="st2" x1="439.6" y1="274.9" x2="439.6" y2="342.6"/>
	<line class="st2" x1="447.7" y1="274.9" x2="447.7" y2="342.6"/>
	<rect x="373.3" y="266.8" class="st2" width="82.5" height="83.9"/>
	<line class="st2" x1="373.3" y1="274.9" x2="455.8" y2="274.9"/>
	<line class="st2" x1="373.3" y1="342.6" x2="455.8" y2="342.6"/>
	<rect x="373.3" y="304.5" class="st1" width="82.5" height="8.4"/>
</g>
<g>
	<line class="st2" x1="381.8" y1="191.1" x2="381.8" y2="258.7"/>
	<line class="st2" x1="390.1" y1="191.1" x2="390.1" y2="258.7"/>
	<line class="st2" x1="398.4" y1="191.1" x2="398.4" y2="258.7"/>
	<line class="st2" x1="406.7" y1="191.1" x2="406.7" y2="258.7"/>
	<line class="st2" x1="415" y1="191.1" x2="415" y2="258.7"/>
	<line class="st2" x1="423.3" y1="191.1" x2="423.3" y2="258.7"/>
	<line class="st2" x1="431.6" y1="191.1" x2="431.6" y2="258.7"/>
	<line class="st2" x1="439.8" y1="191.1" x2="439.8" y2="258.7"/>
	<line class="st2" x1="447.9" y1="191.1" x2="447.9" y2="258.7"/>
	<rect x="373.6" y="183" class="st2" width="82.5" height="83.9"/>
	<line class="st2" x1="373.6" y1="191.1" x2="456.1" y2="191.1"/>
	<line class="st2" x1="373.6" y1="258.7" x2="456.1" y2="258.7"/>
	<rect x="373.6" y="220.7" class="st1" width="82.5" height="8.4"/>
</g>
<g>
	<line class="st2" x1="1062.2" y1="274.9" x2="1062.2" y2="342.6"/>
	<line class="st2" x1="1070.5" y1="274.9" x2="1070.5" y2="342.6"/>
	<line class="st2" x1="1078.8" y1="274.9" x2="1078.8" y2="342.6"/>
	<line class="st2" x1="1087.1" y1="274.9" x2="1087.1" y2="342.6"/>
	<line class="st2" x1="1095.4" y1="274.9" x2="1095.4" y2="342.6"/>
	<line class="st2" x1="1103.7" y1="274.9" x2="1103.7" y2="342.6"/>
	<line class="st2" x1="1112" y1="274.9" x2="1112" y2="342.6"/>
	<line class="st2" x1="1120.2" y1="274.9" x2="1120.2" y2="342.6"/>
	<line class="st2" x1="1128.3" y1="274.9" x2="1128.3" y2="342.6"/>
	<rect x="1053.9" y="266.8" class="st2" width="82.5" height="83.9"/>
	<line class="st2" x1="1053.9" y1="274.9" x2="1136.4" y2="274.9"/>
	<line class="st2" x1="1053.9" y1="342.6" x2="1136.4" y2="342.6"/>
	<rect x="1053.9" y="304.5" class="st1" width="82.5" height="8.4"/>
</g>
<g>
	<line class="st2" x1="1062.4" y1="191.1" x2="1062.4" y2="258.7"/>
	<line class="st2" x1="1070.7" y1="191.1" x2="1070.7" y2="258.7"/>
	<line class="st2" x1="1079" y1="191.1" x2="1079" y2="258.7"/>
	<line class="st2" x1="1087.3" y1="191.1" x2="1087.3" y2="258.7"/>
	<line class="st2" x1="1095.6" y1="191.1" x2="1095.6" y2="258.7"/>
	<line class="st2" x1="1103.9" y1="191.1" x2="1103.9" y2="258.7"/>
	<line class="st2" x1="1112.2" y1="191.1" x2="1112.2" y2="258.7"/>
	<line class="st2" x1="1120.4" y1="191.1" x2="1120.4" y2="258.7"/>
	<line class="st2" x1="1128.5" y1="191.1" x2="1128.5" y2="258.7"/>
	<rect x="1054.1" y="183" class="st2" width="82.5" height="83.9"/>
	<line class="st2" x1="1054.1" y1="191.1" x2="1136.7" y2="191.1"/>
	<line class="st2" x1="1054.1" y1="258.7" x2="1136.7" y2="258.7"/>
	<rect x="1054.1" y="220.7" class="st1" width="82.5" height="8.4"/>
</g>
<rect x="306.8" y="114.4" class="st1" width="37.3" height="236.3"/>
<rect x="298.5" y="114.4" class="st1" width="53" height="7.1"/>
<g>
	<rect x="503.8" y="114.4" class="st1" width="37.3" height="236.3"/>
	<rect x="495.9" y="114.4" class="st1" width="53" height="7.1"/>
</g>
<g>
	<rect x="709.5" y="114.4" class="st1" width="37.3" height="236.3"/>
	<rect x="701.6" y="114.4" class="st1" width="53" height="7.1"/>
</g>
<g>
	<rect x="1120.9" y="114.4" class="st1" width="37.3" height="236.3"/>
	<rect x="1113.1" y="114.4" class="st1" width="53" height="7.1"/>
</g>
<g>
	<rect x="1326.7" y="114.4" class="st1" width="37.3" height="236.3"/>
	<rect x="1318.8" y="114.4" class="st1" width="53" height="7.1"/>
</g>
<g>
	<rect x="124.3" y="145.5" class="st1" width="157.6" height="74.5"/>
	<line class="st2" x1="203.1" y1="145.5" x2="203.1" y2="220"/>
	<line class="st2" x1="163.5" y1="145.5" x2="163.5" y2="220"/>
	<line class="st2" x1="242.9" y1="145.5" x2="242.9" y2="220"/>
	<line class="st2" x1="124.3" y1="182.7" x2="281.9" y2="182.7"/>
	<line class="st2" x1="124.3" y1="164.4" x2="281.9" y2="164.4"/>
	<line class="st2" x1="124.3" y1="201.1" x2="281.9" y2="201.1"/>
</g>
<g>
	<rect x="786.2" y="145.7" class="st1" width="157.6" height="74.5"/>
	<line class="st2" x1="865" y1="145.7" x2="865" y2="220.2"/>
	<line class="st2" x1="825.4" y1="145.7" x2="825.4" y2="220.2"/>
	<line class="st2" x1="904.9" y1="145.7" x2="904.9" y2="220.2"/>
	<line class="st2" x1="786.2" y1="183" x2="943.8" y2="183"/>
	<line class="st2" x1="786.2" y1="164.6" x2="943.8" y2="164.6"/>
	<line class="st2" x1="786.2" y1="201.3" x2="943.8" y2="201.3"/>
</g>
<rect x="99.7" y="350.7" class="st1" width="1467.7" height="8.7"/>
<rect x="80.2" y="49.9" class="st2" width="19.5" height="309.5"/>
<rect x="1567.4" y="49.9" class="st2" width="19.5" height="309.5"/>
<g>
	<rect x="915.2" y="114.4" class="st1" width="37.3" height="236.3"/>
	<rect x="907.3" y="114.4" class="st1" width="53" height="7.1"/>
</g>
</svg>
