<?xml version="1.0" encoding="utf-8"?>
<!-- Generator: Adobe Illustrator 22.1.0, SVG Export Plug-In . SVG Version: 6.00 Build 0)  -->
<svg version="1.1" id="Слой_1" xmlns="http://www.w3.org/2000/svg" xmlns:xlink="http://www.w3.org/1999/xlink" x="0px" y="0px"
	 viewBox="0 0 562.8 403" style="enable-background:new 0 0 562.8 403;" xml:space="preserve">
<style type="text/css">
	.st0{fill:none;stroke:#000000;stroke-width:2;stroke-linejoin:round;stroke-miterlimit:10;}
	.st1{fill:none;stroke:#000000;stroke-width:2;stroke-miterlimit:10;}
	.st2{fill:#FFFFFF;stroke:#000000;stroke-width:2;stroke-miterlimit:10;}
	.st3{fill:none;stroke:#201600;stroke-width:2;stroke-miterlimit:10;}
	.st4{fill:#FFFFFF;stroke:#201600;stroke-width:2;stroke-miterlimit:10;}
	.st5{fill:none;stroke:#1E0E00;stroke-width:2;stroke-miterlimit:10;}
	.st6{fill:none;stroke:#1E0E00;stroke-width:2;stroke-linejoin:round;stroke-miterlimit:10;}
</style>
<g>
	<circle class="st4" cx="283.5" cy="200.5" r="189.6"/>
	<path class="st3" d="M467.3,207.4c-0.4-4.5-1.9-13.1-8.3-19.3c-3.1-2.9-6.8-4.9-9.2-6.1c-2.6-1.4-6.7-3.5-11.4-4.4
		c-9-1.7-10.5,3.1-20.6,2.6c-8.2-0.3-8.9-3.5-17.1-3.1c-6.9,0.4-7.1,2.7-11.8,2.2c-9.2-1-13.6-10.2-17.1-8.3
		c-1.5,0.8-1.8,3.1-1.8,4.4c0.3,4.4,6.3,7,9.2,8.3c7.6,3.4,14.8,2.4,16.2,2.2c5-0.7,5.6-2.2,9.2-2.2c5.3-0.1,12.4,2.1,13.2,6.1
		c0.8,3.9-4.8,8.1-7.5,10.1c-2,1.5-2.4,1.4-9.2,5.3c-4.5,2.6-4.5,2.8-7.5,4.4c-4.8,2.7-8.5,4.3-12.7,6.1c-8,3.5-12.1,5.2-14,4.4
		c-3.7-1.6-2.2-5.7-7-11c-4.2-4.6-7-3.2-12.3-8.3c-2.7-2.6-2.1-3.1-6.6-9.2c-5.9-8-9.8-13.3-14-12.7c-1.8,0.3-4,1.7-4.4,3.5
		c-0.8,4,7.7,5.7,14.5,14.9c4.8,6.6,2.6,8.7,7.5,13.2c4.3,4,6.8,3.1,12.3,8.3c3.3,3.2,3.7,4.7,6.6,6.1c1.7,0.8,4.5,1.7,10.5,0.9
		c11.4-1.5,17.1-6.7,18.9-4.8c1.1,1.1-0.2,4-2.2,8.3c-3.1,6.8-6.8,11.4-7.5,12.3c-4.6,5.7-8.8,9.4-13.6,13.6
		c-9.2,8-11.1,8.2-12.3,11.8c-1.6,5-0.2,11.1,0.9,15.4c1,4,2.1,6.1,1.8,10.1c-0.2,1.9-0.4,5.1-2.6,7.5c-2.4,2.6-4.3,1.4-7.9,3.9
		c-0.5,0.3-4.8,3.6-5.7,8.8c-0.6,3.6,1.1,4.7,0,7c-1.3,2.9-4.4,2.5-7.5,5.3c-3.1,2.8-3.2,6-4.4,9.2c-4,11-19.2,17.9-23.3,14.9
		c-2.1-1.6,0.1-5.1-3.1-11.4c-1.7-3.4-2.6-2.9-4.4-6.1c-3.4-6.1-0.8-9-3.5-16.2c-2.3-6.3-4.8-5.6-5.7-10.5c-1.1-5.9,2.5-7.3,2.2-14
		c-0.3-6.5-3.9-11.6-5.7-14c-4.7-6.5-7.9-5.9-9.2-10.5c-1.7-5.9,2.3-10.9,0-12.7c-1.6-1.2-3.7,0.9-7-0.4c-2.8-1.1-2.6-3.1-4.8-3.9
		c-2.6-1-4.8,1-11.4,4.4c-6.1,3.1-9.2,4.7-11.4,4.4c-4-0.6-3.8-3.6-11-7c-3.2-1.5-4.2-1.4-6.6-3.1c-1.6-1.1-2.2-1.9-5.7-6.1
		c-5.9-7.1-6.3-7.5-6.6-8.8c-0.7-3.7,1.6-4.7,0.9-8.8c-0.7-4-3.1-4.3-3.9-7.5c-0.7-2.3-0.2-5.1,8.8-18c8.1-11.5,7.8-9.4,9.2-12.7
		c1.7-3.9,3.9-11.1,8.3-12.3c0,0,0.1,0,0.1,0c3.9-1,6.2,1.5,8.7,1.8c4.4,0.5,5.4-6.6,13.2-8.8c1.3-0.4,4.9-1.4,7,0.4
		c2,1.7,0.4,4.1,2.2,6.6c2.5,3.4,7,0.9,11.8,4.8c2.4,1.9,2.4,3.4,3.9,3.5c3,0.2,3.5-5.4,7.9-7c4.2-1.6,5.8,2.7,12.3,2.2
		c5.2-0.4,6-3.2,12.3-3.5c3.9-0.2,4.8,0.9,6.6,0c5.1-2.5,5.3-14.2,2.6-15.4c-1.6-0.7-3,2.7-7.5,3.1c-2.6,0.2-3.1-0.8-5.7-0.4
		c-3.7,0.6-4.2,3-6.1,2.6c-2.6-0.4-2.4-4.5-7-9.7c-1.8-2-4.1-4-4.8-3.5c-0.8,0.6,1.6,3.8,0.9,8.3c-0.3,1.8-1.3,4.7-2.6,4.8
		c-1.6,0.1-2.2-3.9-6.6-10.1c-2-2.8-3.8-4.7-4.8-5.7c-0.7-0.7-2.8-2.7-5.9-4.9c-2.9-2-6.6-4.2-6.8-3.9c-0.5,0.6,13.5,8.8,12.3,15.8
		c-0.2,1.1-0.9,2.9-1.8,4.4c-1.2,2-2.4,3.3-4,4.8c-1,1-1.5,1.5-1.7,1.3c-1-0.4,2.6-6.2,0.4-10.1c-1-1.7-1.8-0.9-5.3-3.9
		c-2.8-2.5-5.3-5.7-5.3-5.7c-5.9,0.3-8.7,2.9-9.7,3.9c-1.9,2-2.6,4.4-3.5,7c-1.3,4-0.9,5.7-2.6,9.2c-0.8,1.7-1.4,2.9-2.6,3.9
		c-4.4,3.9-13.7,3-15.8-0.9c-1.4-2.6,1.4-4.3,0.9-10.1c-0.5-4.8-2.7-6.4-1.8-7.9c1.9-2.8,10.5,3,15.8-0.9c2.7-1.9,4.1-6,3.1-8.8
		c-1.6-4.3-8.5-4.7-8.3-6.6c0.1-1.3,3.3-1,7-3.1c4.5-2.4,6.8-6.5,10.1-12.3c1.5-2.7,2.5-4.4,3.5-7c1.4-3.7,1.7-6.1,2.6-6.1
		c1.3-0.1,1.3,4.6,4.4,6.6c3.2,2,8.9,1,11.8-2.2c3.5-3.7,1-7.9,3.9-12.7c3.1-5.1,10.7-2.9,11.8-7c0.3-1.1,0.2-2.6-0.6-3.2
		c-1.1-0.8-3.3,0.1-7.1,1.7c-2.3,1-3.1,1.5-4.2,1.1c-1.5-0.5-2.1-2.5-2.3-3.2c-0.7-2.5-0.2-5.9,1.9-8.1c1.1-1.1,2-1.3,2.3-2.5
		c0.3-1.2-0.2-2.7-1.2-3.3c-1.5-0.8-3.8,0.4-4.7,1.9c-1.3,2.1,0.5,3.7-0.7,6.1c-1.2,2.4-3.7,2.1-4.3,4.4c-0.4,1.6,0.4,3,0.6,3.4
		c0.9,1.8,2.4,2,3.2,2.9c2.9,3.3-3.7,16-7.4,15.3c-3.2-0.6-3.2-11.3-5.7-11.4c-1.6,0-2.1,4.3-4.3,4.4c-1.7,0.1-3.7-2.5-4.2-5.1
		c-0.6-3.5,1.6-6.6,3.8-9.6c3.9-5.2,6.3-5.2,8.4-9.7c1.3-2.8,0.4-3,1.8-6.2c0.7-1.7,3.2-7.6,9.3-10.2c1.4-0.6,4.6-1.8,8.4-1.1
		c1.9,0.3,1.8,0.7,4.3,1.4c4.5,1.1,5.8-0.1,9.6,0.9c0.6,0.2,5.7,1.6,5.7,3.8c0,1.9-3.7,3.4-3.9,3.5c-3.9,1.5-6.8-0.4-7.4,0.7
		c-0.8,1.3,2.7,6.5,6.5,6.4c2.3-0.1,4-2.1,6.4-5c1.4-1.7,2.2-2.7,2.7-4.3c1-3.4-0.8-5.8,0.2-6.5c1.2-0.9,3.7,2.6,6.4,1.9
		c3.2-0.8,3.6-6.9,5.7-6.9c1,0,1.1,1.5,2.4,1.7c2.2,0.3,3.6-3.7,6.2-3.5c1,0.1,1.2,0.8,1.9,0.6c1.5-0.4,0.8-3.7,2.3-5.2
		c2.9-2.9,12.8,2.2,12.9,1.8c0.2-0.4-10.7-4.7-10.2-8.6c0.1-1.1,1.2-1.6,1-3c-0.3-2.2-3.1-3.2-2.9-3.7c0.2-0.5,3.6-0.1,7.4,1.5
		c0.3,0.1,6.5,2.7,11.5,8.1c0.9,1,1.4,1.5,1.8,2.3c1.5,2.9,0.5,5.1,2.1,6.4c0.7,0.6,2,1,2.6,0.5c1.4-1.2-3.3-6.9-1.8-9
		c1.4-2,7.2,0.2,13.4,2.1c5.2,1.6,12.6,3.6,21.9,5.4"/>
	<path class="st3" d="M168.2,49.9c1.1,5,0.1,7.8-1.1,9.5c-1.9,2.6-4.7,2.9-5.1,5.4c-0.4,2.4,2.2,3.2,1.9,5.6
		c-0.3,2.1-2.4,2.1-5.9,6.2c-1.3,1.5-0.7,1.1-2.9,4c-3,3.9-4,4.5-4.5,6.4c-0.3,0.9-0.2,2.3,0,5.1c0.3,5.1,0.5,7.7,1.6,9.1
		c1.2,1.5,3.2,2.8,5.4,2.9c3.5,0.2,5.8-2.6,11.5-8.6c11.2-11.6,14.8-13.4,17.1-12.6c1.5,0.6,1.4,1.8,2.9,2.1c3.4,0.7,4.8-5.4,10.7-8
		c4.9-2.2,7,0.7,12.3-1.9c1.1-0.6,5.2-2.6,6.7-6.7c1.7-4.7-1.8-7.4,0-10.4c2-3.3,6.9-1,11.5-4.5c3.7-2.8,2.3-5.7,5.6-11.8
		c5.2-9.4,13.5-11.9,12.6-14.7c-0.6-1.7-5.6,0.5-8.3-2.1c-2.1-2-1.7-5.9-1.1-8.8"/>
	<path class="st3" d="M121.2,102.3c2.7,0.3,3.9,1.3,4.4,2.1c2.6,3.5-2.7,8.1-0.8,15c0.9,3.1,2.5,4.1,2.1,7c-0.3,2.4-1.7,4.1-2.9,5.6
		c-0.6,0.7-2.8,3.3-7,5.4c-4.7,2.3-6.7,1.5-7.5,3.2c-1.2,2.6,2.7,5.4,2.7,9.1c0,3-2.6,7.2-14.5,12.3"/>
	<path class="st4" d="M173.8,348.9c-1.7-2.5-3.6-6.2-2.4-9.5c1-2.7,3.3-2.6,5.3-5.5c2.8-4.2,2.2-10.4,0.5-14.5
		c-2.2-5.4-6-6.7-5.3-9.7c0.4-1.7,1.6-1.6,5-5.3c2.8-3,4.1-4.5,4.5-6.6c0.5-3.4-1.7-7.1-4.5-8.9c-2.5-1.6-3.6-0.6-9.7-1.6
		c-6.7-1.1-7.2-2.6-11.3-2.4c-4.2,0.3-4.3,1.9-8.2,2.1c-4.2,0.2-10.1-1.3-12.9-5.5c-2.6-3.8-0.4-6.5-3.2-9.5c-2-2.1-3.5-1.1-9.5-3.4
		c-5.3-2.1-8.9-4.7-10.5-6.1c-2.4-2-4.1-3.9-5.3-5.3"/>
	<path class="st3" d="M365.8,321c-2.1-1.3-1.9-6.4,0-9.9c0.9-1.7,1.4-1.4,2.3-3.1c2.3-4.1,0-6.7,1.6-9.3c1.9-3.2,6.2-0.9,10.9-4.4
		c4.6-3.5,4.2-8.6,6.5-8.6c2.3,0,5.4,5.6,3.9,9.1c-1.1,2.6-3.8,2.2-7,5.5c-1.6,1.7-1.4,2.3-3.9,7.3c-5.2,10.4-8.3,12.3-9.9,13
		C369.2,321,367.2,321.9,365.8,321z"/>
	<path class="st3" d="M250.1,122.8c0.7-2.1-1.1-4.9-2.3-6.6c-1.5-2.3-2.9-2.9-2.9-4.7c0-0.6,0.2-0.5,0.6-3.1c0.4-2.5,0.4-3.1,0-3.5
		c-0.5-0.5-1.2-0.1-1.8-0.6c-0.9-0.8-0.2-2.2-0.9-2.9c-1-0.9-4.1-0.3-5,1.5c-0.8,1.4,0.6,2.2,0.6,5.6c0,2.6-0.7,3.7,0.2,4.9
		c0.6,0.8,1.1,0.5,2.3,1.4c1.2,0.9,2.8,2.9,2.4,4.4c-0.4,1.6-2.4,1.2-4.6,3.7c-0.7,0.8-2,2.3-1.7,4.1c0.2,0.8,0.7,1.9,1.7,2.3
		c1.3,0.4,2.4-0.7,5-2.4C248.2,123.9,249.5,124.4,250.1,122.8z"/>
	<path class="st3" d="M235.4,119.3c0.3-2.4,1.1-2.8,0.8-4c-0.4-1.3-1.9-2.3-2.9-2c-0.8,0.2-0.5,1.2-1.7,2.1
		c-0.6,0.5-0.8,0.4-2.9,1.4c-1.6,0.8-1.8,1-1.8,1.2c-0.1,0.6,1.3,0.8,1.7,1.8c0.5,1.3-0.7,2.9-0.9,3.2c-1.2,1.6-2.8,1.8-2.7,2.3
		c0.1,0.4,1.6,0.7,3.1,0.5c1.9-0.3,2-1.3,4.4-2.1c1.6-0.5,2.1-0.3,2.6-0.9C235.6,122,235.1,121.3,235.4,119.3z"/>
	<path class="st3" d="M216.3,91.4c2.7-0.7,5-1.7,6.9-2.9c1.9-1.2,2.9-1.8,3.4-2.9c0.6-1.3,0.6-3.2-0.5-4.4c-0.1-0.1-1.2-1.4-2.4-1.2
		c-1,0.2-0.9,1.1-2,1.7c-1.8,1-3.7-0.9-5,0.2c-0.8,0.6-0.3,1.4-1.2,2.4c-0.9,0.9-1.6,0.6-3.1,1.4c-0.4,0.2-2.8,1.5-2.7,3.2
		c0.1,1.5,2,2.6,3.5,2.9C213.5,91.7,214.3,91.9,216.3,91.4z"/>
	<path class="st3" d="M272.1,39.7c0.9-0.5,0.8-1.7,1.2-3.7c0.4-2.1,0.8-4,2.1-5.4c0.2-0.2,1.3-0.8,3.6-2c2.4-1.3,3-1.6,3.1-2.2
		c0.2-1-0.7-2.2-1.7-2.7c-1.6-0.7-3.4,0.4-4.3,0.9c-1.3,0.8-2.1,1.8-2.8,2.7c-1.3,1.7-1.3,2.3-2.2,2.7c-1.4,0.6-2.4-0.5-3.1,0.1
		c-0.7,0.6-0.7,2.3,0.1,3.3c0.8,1,1.8,0.5,2.4,1.3c1.1,1.4-1,4.1,0,5C270.9,40.1,271.7,40,272.1,39.7z"/>
	<path class="st3" d="M323.1,49.2c-1.8,0.4-3.4-0.3-5.6-1.3c-2-0.9-3-1.4-3.3-2.3c-0.1-0.5,0-0.7,1.2-3.4c1-2.2,1-2.4,1-2.8
		c0.1-1.4-0.4-2.7-0.7-3.5c-0.6-1.4-0.9-1.4-0.9-2.1c0-0.8,0.4-1.2,2.2-3.4c1.7-2.1,1.5-1.9,2-2.4c1.8-1.9,2.5-1.7,3-2.8
		c0.8-1.6-0.3-2.8,0.6-3.6c0.8-0.8,2.6-0.7,3.6,0.3c0.6,0.6,0.8,1.5,0.6,2.3c-0.3,1.2-1.3,1.5-2.7,2.7c-0.4,0.3-2.3,2-3.3,4.3
		c-1.1,2.6,0.1,3.6-1.2,5.6c-0.9,1.3-1.8,1.6-1.9,2.7c0,0.8,0.5,1.1,1.4,2.6c1.6,2.5,0.9,3.3,2.1,4.3c1.6,1.4,3.7,1,3.7,1.6
		C325.2,48.5,324,49,323.1,49.2z"/>
</g>
</svg>
