<?xml version="1.0" encoding="utf-8"?>
<!-- Generator: Adobe Illustrator 22.1.0, SVG Export Plug-In . SVG Version: 6.00 Build 0)  -->
<svg version="1.1" id="Слой_1" xmlns="http://www.w3.org/2000/svg" xmlns:xlink="http://www.w3.org/1999/xlink" x="0px" y="0px"
	 viewBox="0 0 88.4 23.7" style="enable-background:new 0 0 88.4 23.7;" xml:space="preserve">
<style type="text/css">
	.st0{fill:#FFFFFF;}
</style>
<g>
	<g>
		<path class="st0" d="M9.2,23.5l0-5.4l-2.6,4.4H5.2l-2.6-4.2v5.2H0V13.4h2.4l3.6,5.8l3.5-5.8h2.4l0,10.1H9.2z"/>
		<path class="st0" d="M16,15.6h-3.1v-2.3h9.1v2.3h-3.1v7.9H16V15.6z"/>
		<path class="st0" d="M27.4,20.8h-1.6v2.7H23V13.4h4.6c0.9,0,1.7,0.2,2.4,0.5c0.7,0.3,1.2,0.7,1.6,1.3c0.4,0.6,0.6,1.2,0.6,2
			c0,0.7-0.2,1.4-0.5,1.9c-0.3,0.5-0.8,1-1.5,1.3l2.2,3.2h-3.1L27.4,20.8z M28.8,16c-0.3-0.3-0.7-0.4-1.3-0.4h-1.6v3h1.6
			c0.6,0,1-0.1,1.3-0.4c0.3-0.3,0.4-0.6,0.4-1.1S29.1,16.3,28.8,16z"/>
		<path class="st0" d="M40.5,18.2H43v4.2c-0.6,0.4-1.2,0.7-2,1c-0.8,0.2-1.5,0.3-2.3,0.3c-1.1,0-2-0.2-2.9-0.7
			c-0.8-0.4-1.5-1.1-2-1.9c-0.5-0.8-0.7-1.7-0.7-2.7s0.2-1.9,0.7-2.7c0.5-0.8,1.2-1.4,2-1.9c0.9-0.4,1.8-0.7,2.9-0.7
			c0.9,0,1.8,0.2,2.5,0.5c0.8,0.3,1.4,0.8,1.9,1.4l-1.8,1.7c-0.7-0.8-1.5-1.1-2.5-1.1c-0.9,0-1.6,0.3-2.1,0.8
			c-0.5,0.5-0.8,1.2-0.8,2.1c0,0.6,0.1,1.1,0.4,1.5c0.2,0.4,0.6,0.8,1,1c0.4,0.2,0.9,0.4,1.5,0.4c0.6,0,1.1-0.1,1.5-0.3V18.2z"/>
		<path class="st0" d="M49.3,20.8h-1.6v2.7h-2.9V13.4h4.6c0.9,0,1.7,0.2,2.4,0.5c0.7,0.3,1.2,0.7,1.6,1.3c0.4,0.6,0.6,1.2,0.6,2
			c0,0.7-0.2,1.4-0.5,1.9c-0.3,0.5-0.8,1-1.5,1.3l2.2,3.2h-3.1L49.3,20.8z M50.7,16c-0.3-0.3-0.7-0.4-1.3-0.4h-1.6v3h1.6
			c0.6,0,1-0.1,1.3-0.4c0.3-0.3,0.4-0.6,0.4-1.1S51,16.3,50.7,16z"/>
		<path class="st0" d="M57.8,23c-0.9-0.5-1.5-1.1-2-1.9c-0.5-0.8-0.7-1.7-0.7-2.7c0-1,0.2-1.9,0.7-2.7c0.5-0.8,1.2-1.4,2-1.9
			c0.9-0.5,1.8-0.7,2.9-0.7c1.1,0,2,0.2,2.9,0.7c0.9,0.5,1.5,1.1,2,1.9c0.5,0.8,0.7,1.7,0.7,2.7c0,1-0.2,1.9-0.7,2.7
			c-0.5,0.8-1.2,1.4-2,1.9c-0.9,0.5-1.8,0.7-2.9,0.7C59.6,23.7,58.7,23.5,57.8,23z M62.1,21c0.4-0.2,0.7-0.6,1-1
			c0.2-0.4,0.4-0.9,0.4-1.5s-0.1-1.1-0.4-1.5c-0.2-0.4-0.6-0.8-1-1c-0.4-0.2-0.9-0.4-1.4-0.4s-1,0.1-1.4,0.4c-0.4,0.2-0.7,0.6-1,1
			c-0.2,0.4-0.4,0.9-0.4,1.5s0.1,1.1,0.4,1.5c0.2,0.4,0.6,0.8,1,1c0.4,0.2,0.9,0.4,1.4,0.4S61.7,21.2,62.1,21z"/>
		<path class="st0" d="M69,22.5c-0.8-0.8-1.3-2-1.3-3.5v-5.6h2.9v5.5c0,1.6,0.6,2.4,1.9,2.4c1.3,0,1.9-0.8,1.9-2.4v-5.5h2.8V19
			c0,1.5-0.4,2.7-1.3,3.5c-0.8,0.8-2,1.2-3.5,1.2C71,23.7,69.8,23.3,69,22.5z"/>
		<path class="st0" d="M86.2,13.8c0.7,0.3,1.2,0.7,1.6,1.3c0.4,0.6,0.6,1.2,0.6,2s-0.2,1.4-0.6,2c-0.4,0.6-0.9,1-1.6,1.3
			c-0.7,0.3-1.5,0.5-2.4,0.5h-1.8v2.6h-2.9V13.4h4.6C84.8,13.4,85.6,13.5,86.2,13.8z M85,18.2c0.3-0.3,0.4-0.6,0.4-1.1
			S85.3,16.3,85,16c-0.3-0.3-0.7-0.4-1.3-0.4h-1.6v3h1.6C84.3,18.6,84.7,18.5,85,18.2z"/>
	</g>
	<path class="st0" d="M86,4.6c-0.9,0-1.7,0.5-2.1,1.2c-12.7-2.6-25.7-3.9-38.7-4L42,0v1.9C29.4,2,16.8,3.3,4.5,5.8
		C4.1,5.1,3.3,4.6,2.4,4.6C1.1,4.6,0,5.6,0,6.9s1.1,2.4,2.4,2.4c1.3,0,2.3-1,2.4-2.3C17,4.6,29.5,3.3,42,3.1v1.8l3.2-1.8
		C58.1,3.2,71,4.5,83.6,7c0,1.3,1.1,2.3,2.4,2.3c1.3,0,2.4-1.1,2.4-2.4S87.3,4.6,86,4.6z M2.4,8.1c-0.6,0-1.1-0.5-1.1-1.1
		c0-0.6,0.5-1.1,1.1-1.1c0.6,0,1.1,0.5,1.1,1.1C3.5,7.6,3,8.1,2.4,8.1z M86,8.1c-0.6,0-1.1-0.5-1.1-1.1c0-0.6,0.5-1.1,1.1-1.1
		s1.1,0.5,1.1,1.1C87.1,7.6,86.6,8.1,86,8.1z"/>
</g>
</svg>
