<?xml version="1.0" encoding="utf-8"?>
<!-- Generator: Adobe Illustrator 22.1.0, SVG Export Plug-In . SVG Version: 6.00 Build 0)  -->
<svg version="1.1" id="Слой_1" xmlns="http://www.w3.org/2000/svg" xmlns:xlink="http://www.w3.org/1999/xlink" x="0px" y="0px"
	 viewBox="0 0 141.7 141.7" style="enable-background:new 0 0 141.7 141.7;" xml:space="preserve">
<g>
	<path d="M4.8,100.2c0-19.6,0-39.2,0-58.9c0.7-4.7,1.7-9.2,3.9-13.4c7.7-15,20-23.4,36.9-23.8C62.9,3.7,80.1,4,97.4,4
		c1.7,0,3.4,0.1,5.1,0.4c21.4,3.2,36,21.7,35.8,41.5c-0.2,16.6,0,33.2,0,49.7c0,1.6,0,3.3-0.2,4.9c-2.2,15.4-10.3,26.5-24.3,33.3
		c-4.1,2-8.4,2.9-12.9,3.6c-19.6,0-39.2,0-58.9,0c-0.9-0.2-1.8-0.3-2.7-0.5c-14.3-2.8-24.6-10.8-31-23.9
		C6.5,108.9,5.5,104.6,4.8,100.2z M125.6,70.8c0-7.3,0-14.6,0-21.9c0-1.9,0-3.7-0.2-5.6c-0.8-8.9-4.9-16-12.1-21.3
		c-5.2-3.8-11.1-5.4-17.5-5.4c-15.4,0-30.9,0-46.3,0c-1.8,0-3.6,0-5.3,0.2c-8.9,0.8-15.9,4.8-21.2,11.9c-3.9,5.2-5.5,11.1-5.5,17.6
		c0,15.5,0,31.1,0,46.6c0,1.7,0,3.4,0.2,5.1c0.8,9,4.9,16.1,12.1,21.3c5.2,3.8,11.1,5.4,17.5,5.4c15.5,0,31,0,46.5,0
		c1.7,0,3.4,0,5.1-0.2c8.4-0.7,15.2-4.4,20.5-11c4.3-5.4,6.3-11.6,6.3-18.5C125.6,87.1,125.6,78.9,125.6,70.8z"/>
	<path d="M104.9,70.8c0.2,18.3-15.2,33.5-33.6,33.4C53.1,104.1,38,89,38,70.6c0.1-18.3,15.3-33.5,33.7-33.3
		C90.1,37.4,104.9,52.3,104.9,70.8z M71.5,91.5c11.3,0,20.8-9.4,20.7-20.7C92.1,59.1,83.1,50.1,71.5,50
		c-11.3-0.1-20.8,9.4-20.7,20.7C50.9,82.3,59.9,91.2,71.5,91.5z"/>
	<path d="M111.9,34.9c0,2.4-2.1,4.5-4.6,4.6c-2.5,0-4.7-2.2-4.6-4.7c0-2.5,2.1-4.5,4.6-4.5C109.8,30.3,112,32.4,111.9,34.9z"/>
</g>
</svg>
